<svg xmlns="http://www.w3.org/2000/svg" xmlns:xlink="http://www.w3.org/1999/xlink" width="500" zoomAndPan="magnify" viewBox="0 0 375 374.999991" height="500" preserveAspectRatio="xMidYMid meet" version="1.0"><defs><g/><clipPath id="7229c49215"><path d="M 96 9 L 124 9 L 124 46.960938 L 96 46.960938 Z M 96 9 " clip-rule="nonzero"/></clipPath><clipPath id="d831b69024"><path d="M 146 10 L 174 10 L 174 46.960938 L 146 46.960938 Z M 146 10 " clip-rule="nonzero"/></clipPath><clipPath id="9ee70f49fd"><path d="M 198 0.160156 L 207 0.160156 L 207 37 L 198 37 Z M 198 0.160156 " clip-rule="nonzero"/></clipPath><clipPath id="33f06c5cf2"><rect x="0" width="341" y="0" height="47"/></clipPath><clipPath id="8f29d27227"><path d="M 250.695312 191.171875 L 260.207031 191.171875 L 260.207031 200.679688 L 250.695312 200.679688 Z M 250.695312 191.171875 " clip-rule="nonzero"/></clipPath><clipPath id="fe108cee91"><path d="M 255.449219 191.171875 C 252.824219 191.171875 250.695312 193.300781 250.695312 195.925781 C 250.695312 198.550781 252.824219 200.679688 255.449219 200.679688 C 258.078125 200.679688 260.207031 198.550781 260.207031 195.925781 C 260.207031 193.300781 258.078125 191.171875 255.449219 191.171875 Z M 255.449219 191.171875 " clip-rule="nonzero"/></clipPath><clipPath id="1b769c9241"><path d="M 0.695312 0.171875 L 10.207031 0.171875 L 10.207031 9.679688 L 0.695312 9.679688 Z M 0.695312 0.171875 " clip-rule="nonzero"/></clipPath><clipPath id="6b27a6e435"><path d="M 5.449219 0.171875 C 2.824219 0.171875 0.695312 2.300781 0.695312 4.925781 C 0.695312 7.550781 2.824219 9.679688 5.449219 9.679688 C 8.078125 9.679688 10.207031 7.550781 10.207031 4.925781 C 10.207031 2.300781 8.078125 0.171875 5.449219 0.171875 Z M 5.449219 0.171875 " clip-rule="nonzero"/></clipPath><clipPath id="2a47f1f384"><rect x="0" width="11" y="0" height="10"/></clipPath></defs><g transform="matrix(1, 0, 0, 1, 15, 164)"><g clip-path="url(#33f06c5cf2)"><g fill="#ffffff" fill-opacity="1"><g transform="translate(2.209901, 36.663185)"><g><path d="M 23.09375 -23.6875 C 23.675781 -23.039062 23.859375 -22.351562 23.640625 -21.625 C 23.546875 -21.28125 23.382812 -20.960938 23.15625 -20.671875 C 22.925781 -20.390625 22.691406 -20.109375 22.453125 -19.828125 C 22.296875 -19.679688 22.140625 -19.53125 21.984375 -19.375 C 21.835938 -19.21875 21.6875 -19.0625 21.53125 -18.90625 C 21.28125 -18.632812 20.945312 -18.546875 20.53125 -18.640625 C 20.125 -18.734375 19.710938 -18.882812 19.296875 -19.09375 C 18.890625 -19.3125 18.53125 -19.46875 18.21875 -19.5625 C 17.550781 -19.800781 16.882812 -20.007812 16.21875 -20.1875 C 15.5625 -20.375 14.882812 -20.515625 14.1875 -20.609375 C 14.03125 -20.640625 13.882812 -20.65625 13.75 -20.65625 C 13.613281 -20.65625 13.46875 -20.65625 13.3125 -20.65625 C 11.8125 -20.65625 10.472656 -20.203125 9.296875 -19.296875 C 8.117188 -18.398438 7.316406 -17.203125 6.890625 -15.703125 C 6.429688 -14.078125 6.472656 -12.484375 7.015625 -10.921875 C 7.566406 -9.359375 8.519531 -8.101562 9.875 -7.15625 C 10.914062 -6.457031 12.257812 -6.109375 13.90625 -6.109375 C 16.019531 -6.109375 17.71875 -6.613281 19 -7.625 C 19.613281 -8.113281 20.125 -8.425781 20.53125 -8.5625 C 20.945312 -8.695312 21.445312 -8.414062 22.03125 -7.71875 C 22.34375 -7.40625 22.640625 -7.070312 22.921875 -6.71875 C 23.210938 -6.375 23.5 -6.015625 23.78125 -5.640625 C 24.144531 -5.148438 24.203125 -4.675781 23.953125 -4.21875 C 23.710938 -3.757812 23.300781 -3.332031 22.71875 -2.9375 C 22.132812 -2.539062 21.53125 -2.195312 20.90625 -1.90625 C 20.28125 -1.613281 19.800781 -1.390625 19.46875 -1.234375 C 17.59375 -0.347656 15.632812 0.09375 13.59375 0.09375 C 11.570312 0.09375 9.640625 -0.34375 7.796875 -1.21875 C 5.960938 -2.09375 4.328125 -3.320312 2.890625 -4.90625 C 1.671875 -6.34375 0.859375 -7.828125 0.453125 -9.359375 C 0.0546875 -10.890625 -0.0703125 -12.390625 0.0625 -13.859375 C 0.207031 -15.328125 0.460938 -16.660156 0.828125 -17.859375 C 1.617188 -20.304688 2.910156 -22.265625 4.703125 -23.734375 C 6.492188 -25.203125 8.722656 -26.101562 11.390625 -26.4375 C 12.273438 -26.53125 13.097656 -26.578125 13.859375 -26.578125 C 14.285156 -26.578125 14.910156 -26.523438 15.734375 -26.421875 C 16.566406 -26.316406 17.457031 -26.144531 18.40625 -25.90625 C 19.351562 -25.675781 20.253906 -25.378906 21.109375 -25.015625 C 21.972656 -24.648438 22.632812 -24.207031 23.09375 -23.6875 Z M 23.09375 -23.6875 "/></g></g></g><g fill="#ffffff" fill-opacity="1"><g transform="translate(26.397224, 36.663185)"><g><path d="M 0.046875 -13.3125 C 0.015625 -15.03125 0.347656 -16.738281 1.046875 -18.4375 C 1.753906 -20.132812 2.738281 -21.625 4 -22.90625 C 5.1875 -24.132812 6.546875 -25.066406 8.078125 -25.703125 C 9.609375 -26.347656 11.1875 -26.671875 12.8125 -26.671875 C 12.957031 -26.671875 13.113281 -26.671875 13.28125 -26.671875 C 13.457031 -26.671875 13.617188 -26.671875 13.765625 -26.671875 C 13.765625 -26.671875 13.769531 -26.671875 13.78125 -26.671875 C 13.800781 -26.671875 13.8125 -26.671875 13.8125 -26.671875 C 16.476562 -26.671875 18.828125 -26.117188 20.859375 -25.015625 C 22.898438 -23.910156 24.5 -22.378906 25.65625 -20.421875 C 26.820312 -18.460938 27.40625 -16.203125 27.40625 -13.640625 C 27.40625 -9.628906 26.148438 -6.367188 23.640625 -3.859375 C 22.421875 -2.628906 20.957031 -1.6875 19.25 -1.03125 C 17.550781 -0.375 15.707031 -0.046875 13.71875 -0.046875 C 11.820312 -0.046875 10.054688 -0.390625 8.421875 -1.078125 C 6.785156 -1.765625 5.347656 -2.710938 4.109375 -3.921875 C 2.867188 -5.128906 1.890625 -6.535156 1.171875 -8.140625 C 0.453125 -9.753906 0.078125 -11.476562 0.046875 -13.3125 Z M 13.59375 -21.203125 C 12.519531 -21.203125 11.476562 -20.859375 10.46875 -20.171875 C 9.457031 -19.484375 8.625 -18.597656 7.96875 -17.515625 C 7.3125 -16.429688 6.96875 -15.289062 6.9375 -14.09375 C 6.90625 -12.78125 7.117188 -11.507812 7.578125 -10.28125 C 8.035156 -9.0625 8.738281 -8.035156 9.6875 -7.203125 C 10.632812 -6.378906 11.8125 -5.890625 13.21875 -5.734375 C 14.78125 -5.585938 16.097656 -5.832031 17.171875 -6.46875 C 18.242188 -7.113281 19.066406 -7.992188 19.640625 -9.109375 C 20.222656 -10.222656 20.546875 -11.445312 20.609375 -12.78125 C 20.671875 -14.113281 20.472656 -15.390625 20.015625 -16.609375 C 19.554688 -17.835938 18.820312 -18.875 17.8125 -19.71875 C 16.800781 -20.5625 15.515625 -21.054688 13.953125 -21.203125 C 13.890625 -21.203125 13.828125 -21.203125 13.765625 -21.203125 C 13.710938 -21.203125 13.65625 -21.203125 13.59375 -21.203125 Z M 13.59375 -21.203125 "/></g></g></g><g fill="#ffffff" fill-opacity="1"><g transform="translate(53.889145, 36.663185)"><g><path d="M 29.328125 -20.796875 C 27.953125 -20.609375 26.910156 -20.175781 26.203125 -19.5 C 25.503906 -18.832031 25.023438 -18 24.765625 -17 C 24.503906 -16.007812 24.375 -14.960938 24.375 -13.859375 C 24.375 -12.765625 24.390625 -11.679688 24.421875 -10.609375 C 24.421875 -10.390625 24.441406 -9.90625 24.484375 -9.15625 C 24.535156 -8.40625 24.578125 -7.546875 24.609375 -6.578125 C 24.640625 -5.617188 24.628906 -4.671875 24.578125 -3.734375 C 24.535156 -2.804688 24.429688 -2.023438 24.265625 -1.390625 C 24.097656 -0.765625 23.84375 -0.425781 23.5 -0.375 C 22.945312 -0.3125 22.328125 -0.222656 21.640625 -0.109375 C 20.953125 -0.00390625 20.285156 0.0234375 19.640625 -0.015625 C 19.003906 -0.0664062 18.472656 -0.257812 18.046875 -0.59375 C 17.617188 -0.9375 17.40625 -1.503906 17.40625 -2.296875 C 17.375 -4.554688 17.359375 -6.828125 17.359375 -9.109375 C 17.359375 -11.390625 17.265625 -13.648438 17.078125 -15.890625 C 16.984375 -17.140625 16.640625 -18.242188 16.046875 -19.203125 C 15.453125 -20.171875 14.429688 -20.71875 12.984375 -20.84375 C 12.898438 -20.875 12.78125 -20.890625 12.625 -20.890625 C 11.34375 -20.890625 10.3125 -20.582031 9.53125 -19.96875 C 8.75 -19.351562 8.164062 -18.554688 7.78125 -17.578125 C 7.394531 -16.597656 7.140625 -15.566406 7.015625 -14.484375 C 6.898438 -13.398438 6.859375 -12.367188 6.890625 -11.390625 C 6.921875 -10.035156 6.941406 -8.675781 6.953125 -7.3125 C 6.972656 -5.957031 6.984375 -4.609375 6.984375 -3.265625 C 7.015625 -2.191406 6.90625 -1.445312 6.65625 -1.03125 C 6.414062 -0.613281 6.003906 -0.367188 5.421875 -0.296875 C 4.835938 -0.222656 4.039062 -0.140625 3.03125 -0.046875 C 1.863281 0.046875 1.082031 -0.210938 0.6875 -0.828125 C 0.289062 -1.441406 0.09375 -2.28125 0.09375 -3.34375 C 0.09375 -5.519531 0.09375 -7.707031 0.09375 -9.90625 C 0.09375 -12.113281 0.09375 -14.320312 0.09375 -16.53125 C 0.09375 -17.625 0.09375 -18.710938 0.09375 -19.796875 C 0.09375 -20.890625 0.09375 -21.988281 0.09375 -23.09375 C 0.09375 -23.519531 0.0664062 -24.035156 0.015625 -24.640625 C -0.0234375 -25.253906 0.101562 -25.71875 0.40625 -26.03125 C 0.53125 -26.1875 0.820312 -26.265625 1.28125 -26.265625 C 1.375 -26.265625 1.484375 -26.265625 1.609375 -26.265625 C 1.734375 -26.265625 1.851562 -26.25 1.96875 -26.21875 C 2.394531 -26.15625 2.804688 -26.082031 3.203125 -26 C 3.609375 -25.925781 4.007812 -25.859375 4.40625 -25.796875 C 5.050781 -25.671875 5.703125 -25.554688 6.359375 -25.453125 C 7.015625 -25.347656 7.679688 -25.25 8.359375 -25.15625 C 8.421875 -25.15625 8.472656 -25.15625 8.515625 -25.15625 C 8.554688 -25.15625 8.59375 -25.15625 8.625 -25.15625 C 8.9375 -25.15625 9.210938 -25.203125 9.453125 -25.296875 C 9.703125 -25.390625 9.929688 -25.46875 10.140625 -25.53125 C 10.203125 -25.582031 10.269531 -25.613281 10.34375 -25.625 C 10.425781 -25.644531 10.484375 -25.671875 10.515625 -25.703125 C 11.367188 -25.984375 12.144531 -26.195312 12.84375 -26.34375 C 13.550781 -26.5 14.210938 -26.578125 14.828125 -26.578125 C 16.691406 -26.578125 18.285156 -25.859375 19.609375 -24.421875 C 20.460938 -23.566406 21.347656 -23.140625 22.265625 -23.140625 C 22.816406 -23.140625 23.3125 -23.257812 23.75 -23.5 C 24.195312 -23.75 24.601562 -24.007812 24.96875 -24.28125 C 25.0625 -24.34375 25.144531 -24.40625 25.21875 -24.46875 C 25.300781 -24.53125 25.375 -24.578125 25.4375 -24.609375 C 27.425781 -25.953125 29.535156 -26.625 31.765625 -26.625 C 33.296875 -26.625 34.75 -26.300781 36.125 -25.65625 C 37.5 -25.019531 38.691406 -24.070312 39.703125 -22.8125 C 40.378906 -21.988281 40.863281 -21.046875 41.15625 -19.984375 C 41.445312 -18.929688 41.628906 -17.816406 41.703125 -16.640625 C 41.785156 -15.460938 41.816406 -14.289062 41.796875 -13.125 C 41.785156 -11.96875 41.820312 -10.882812 41.90625 -9.875 C 42.03125 -8.519531 42.15625 -7.125 42.28125 -5.6875 C 42.40625 -4.25 42.207031 -2.875 41.6875 -1.5625 C 41.46875 -1.039062 41.144531 -0.703125 40.71875 -0.546875 C 40.289062 -0.398438 39.816406 -0.347656 39.296875 -0.390625 C 38.773438 -0.429688 38.238281 -0.4375 37.6875 -0.40625 C 36.925781 -0.40625 36.367188 -0.441406 36.015625 -0.515625 C 35.660156 -0.597656 35.429688 -0.816406 35.328125 -1.171875 C 35.222656 -1.523438 35.140625 -2.097656 35.078125 -2.890625 C 34.953125 -5.160156 34.90625 -7.441406 34.9375 -9.734375 C 34.96875 -12.023438 34.859375 -14.273438 34.609375 -16.484375 C 34.460938 -17.859375 34 -18.9375 33.21875 -19.71875 C 32.4375 -20.5 31.429688 -20.890625 30.203125 -20.890625 C 30.078125 -20.890625 29.9375 -20.878906 29.78125 -20.859375 C 29.632812 -20.847656 29.484375 -20.828125 29.328125 -20.796875 Z M 29.328125 -20.796875 "/></g></g></g><g clip-path="url(#7229c49215)"><g fill="#ffffff" fill-opacity="1"><g transform="translate(96.297654, 36.663185)"><g><path d="M 22.765625 -2.9375 C 20.960938 -1.40625 18.820312 -0.507812 16.34375 -0.25 C 13.863281 0.0078125 11.398438 -0.457031 8.953125 -1.65625 C 8.828125 -1.75 8.660156 -1.796875 8.453125 -1.796875 C 8.234375 -1.796875 8.015625 -1.734375 7.796875 -1.609375 C 7.429688 -1.390625 7.25 -1.050781 7.25 -0.59375 C 7.25 -0.132812 7.25 0.320312 7.25 0.78125 C 7.25 1.238281 7.25 1.695312 7.25 2.15625 C 7.25 2.457031 7.28125 2.953125 7.34375 3.640625 C 7.40625 4.335938 7.457031 5.082031 7.5 5.875 C 7.550781 6.664062 7.546875 7.375 7.484375 8 C 7.421875 8.632812 7.253906 9.046875 6.984375 9.234375 C 6.859375 9.285156 6.71875 9.328125 6.5625 9.359375 C 6.40625 9.390625 6.253906 9.421875 6.109375 9.453125 C 5.304688 9.546875 4.484375 9.644531 3.640625 9.75 C 2.804688 9.863281 2.066406 9.789062 1.421875 9.53125 C 0.773438 9.269531 0.378906 8.632812 0.234375 7.625 C 0.015625 5.8125 -0.03125 4.007812 0.09375 2.21875 C 0.21875 0.4375 0.28125 -1.34375 0.28125 -3.125 C 0.28125 -6.582031 0.285156 -10.09375 0.296875 -13.65625 C 0.316406 -17.21875 0.296875 -20.757812 0.234375 -24.28125 C 0.234375 -24.925781 0.269531 -25.382812 0.34375 -25.65625 C 0.414062 -25.9375 0.5 -26.125 0.59375 -26.21875 C 0.875 -26.488281 1.328125 -26.566406 1.953125 -26.453125 C 2.578125 -26.347656 3.21875 -26.195312 3.875 -26 C 4.53125 -25.800781 5.015625 -25.671875 5.328125 -25.609375 C 6.578125 -25.398438 7.753906 -25.382812 8.859375 -25.5625 C 9.960938 -25.75 11.070312 -25.976562 12.1875 -26.25 C 13.300781 -26.53125 14.472656 -26.671875 15.703125 -26.671875 C 17.441406 -26.671875 19.015625 -26.3125 20.421875 -25.59375 C 21.835938 -24.875 23.035156 -23.894531 24.015625 -22.65625 C 24.992188 -21.414062 25.765625 -20.03125 26.328125 -18.5 C 26.890625 -16.96875 27.203125 -15.382812 27.265625 -13.75 C 27.328125 -12.113281 27.128906 -10.53125 26.671875 -9 C 26.273438 -7.707031 25.742188 -6.554688 25.078125 -5.546875 C 24.421875 -4.546875 23.648438 -3.675781 22.765625 -2.9375 Z M 13.59375 -5.546875 C 13.65625 -5.546875 13.695312 -5.546875 13.71875 -5.546875 C 13.75 -5.546875 13.78125 -5.546875 13.8125 -5.546875 C 15.070312 -5.609375 16.191406 -5.992188 17.171875 -6.703125 C 18.148438 -7.410156 18.925781 -8.34375 19.5 -9.5 C 20.082031 -10.664062 20.363281 -11.953125 20.34375 -13.359375 C 20.34375 -14.828125 20.039062 -16.140625 19.4375 -17.296875 C 18.84375 -18.460938 18.046875 -19.390625 17.046875 -20.078125 C 16.054688 -20.765625 14.9375 -21.109375 13.6875 -21.109375 L 13.5 -21.109375 C 12.269531 -21.085938 11.164062 -20.710938 10.1875 -19.984375 C 9.207031 -19.265625 8.441406 -18.300781 7.890625 -17.09375 C 7.335938 -15.882812 7.078125 -14.53125 7.109375 -13.03125 C 7.140625 -11.625 7.4375 -10.351562 8 -9.21875 C 8.570312 -8.09375 9.347656 -7.195312 10.328125 -6.53125 C 11.304688 -5.875 12.394531 -5.546875 13.59375 -5.546875 Z M 13.59375 -5.546875 "/></g></g></g></g><g fill="#ffffff" fill-opacity="1"><g transform="translate(123.651882, 36.663185)"><g><path d="M 22.453125 -1.140625 C 22.203125 -0.835938 21.816406 -0.671875 21.296875 -0.640625 C 20.804688 -0.640625 20.332031 -0.738281 19.875 -0.9375 C 19.414062 -1.132812 18.960938 -1.332031 18.515625 -1.53125 C 18.078125 -1.738281 17.597656 -1.84375 17.078125 -1.84375 C 16.742188 -1.84375 16.40625 -1.816406 16.0625 -1.765625 C 15.726562 -1.722656 15.425781 -1.671875 15.15625 -1.609375 L 14.921875 -1.5625 C 14.035156 -1.40625 13.171875 -1.203125 12.328125 -0.953125 C 11.484375 -0.710938 10.695312 -0.472656 9.96875 -0.234375 C 9.625 -0.140625 9.273438 -0.0625 8.921875 0 C 8.578125 0.0625 8.21875 0.09375 7.84375 0.09375 C 5.613281 0.09375 3.734375 -0.796875 2.203125 -2.578125 C 0.460938 -4.554688 -0.222656 -7.003906 0.140625 -9.921875 C 0.296875 -11.078125 0.703125 -12.113281 1.359375 -13.03125 C 2.015625 -13.957031 2.847656 -14.664062 3.859375 -15.15625 C 4.378906 -15.394531 4.925781 -15.566406 5.5 -15.671875 C 6.082031 -15.785156 6.679688 -15.882812 7.296875 -15.96875 C 7.453125 -15.96875 7.585938 -15.972656 7.703125 -15.984375 C 7.828125 -16.003906 7.953125 -16.03125 8.078125 -16.0625 L 14.09375 -16.890625 C 14.882812 -17.015625 15.378906 -17.253906 15.578125 -17.609375 C 15.785156 -17.960938 15.898438 -18.242188 15.921875 -18.453125 C 15.984375 -18.972656 15.820312 -19.445312 15.4375 -19.875 C 15.0625 -20.300781 14.613281 -20.59375 14.09375 -20.75 C 13.144531 -21.113281 12.164062 -21.296875 11.15625 -21.296875 L 11.015625 -21.296875 C 10.066406 -21.265625 9.164062 -21.125 8.3125 -20.875 C 7.457031 -20.632812 6.628906 -20.347656 5.828125 -20.015625 C 5.585938 -19.890625 5.296875 -19.828125 4.953125 -19.828125 C 4.285156 -19.828125 3.617188 -20.046875 2.953125 -20.484375 C 2.296875 -20.929688 1.832031 -21.460938 1.5625 -22.078125 C 1.4375 -22.328125 1.378906 -22.535156 1.390625 -22.703125 C 1.410156 -22.867188 1.4375 -23 1.46875 -23.09375 C 1.65625 -23.488281 2.015625 -23.847656 2.546875 -24.171875 C 3.078125 -24.492188 3.640625 -24.769531 4.234375 -25 C 4.835938 -25.226562 5.335938 -25.40625 5.734375 -25.53125 C 7.941406 -26.226562 10.160156 -26.578125 12.390625 -26.578125 C 12.609375 -26.578125 12.820312 -26.578125 13.03125 -26.578125 C 13.25 -26.578125 13.46875 -26.5625 13.6875 -26.53125 C 14.75 -26.46875 15.929688 -26.257812 17.234375 -25.90625 C 18.535156 -25.5625 19.644531 -24.898438 20.5625 -23.921875 C 21.632812 -22.753906 22.28125 -21.585938 22.5 -20.421875 C 22.738281 -19.109375 22.816406 -17.738281 22.734375 -16.3125 C 22.660156 -14.894531 22.640625 -13.515625 22.671875 -12.171875 C 22.671875 -10.785156 22.671875 -9.394531 22.671875 -8 C 22.671875 -6.613281 22.6875 -5.25 22.71875 -3.90625 C 22.71875 -3.445312 22.738281 -2.957031 22.78125 -2.4375 C 22.832031 -1.914062 22.722656 -1.484375 22.453125 -1.140625 Z M 15.796875 -9.046875 C 16.035156 -9.535156 16.109375 -9.945312 16.015625 -10.28125 C 15.929688 -10.613281 15.84375 -10.84375 15.75 -10.96875 C 15.625 -11.15625 15.429688 -11.332031 15.171875 -11.5 C 14.910156 -11.664062 14.550781 -11.765625 14.09375 -11.796875 L 13.71875 -11.84375 C 13.445312 -11.875 13.164062 -11.890625 12.875 -11.890625 C 12.582031 -11.890625 12.269531 -11.890625 11.9375 -11.890625 C 11.414062 -11.890625 10.785156 -11.832031 10.046875 -11.71875 C 9.316406 -11.613281 8.613281 -11.332031 7.9375 -10.875 C 7.476562 -10.507812 7.1875 -10.128906 7.0625 -9.734375 C 6.945312 -9.398438 6.9375 -8.972656 7.03125 -8.453125 C 7.238281 -7.503906 7.648438 -6.769531 8.265625 -6.25 C 8.878906 -5.726562 9.613281 -5.46875 10.46875 -5.46875 C 11.539062 -5.46875 12.59375 -5.816406 13.625 -6.515625 C 14.664062 -7.222656 15.390625 -8.066406 15.796875 -9.046875 Z M 15.796875 -9.046875 "/></g></g></g><g clip-path="url(#d831b69024)"><g fill="#ffffff" fill-opacity="1"><g transform="translate(146.554075, 36.663185)"><g><path d="M 26.53125 -19.78125 C 26.53125 -17.695312 26.546875 -15.597656 26.578125 -13.484375 C 26.609375 -11.378906 26.59375 -9.285156 26.53125 -7.203125 C 26.5 -6.046875 26.484375 -4.835938 26.484375 -3.578125 C 26.484375 -2.328125 26.390625 -1.09375 26.203125 0.125 C 26.023438 1.351562 25.644531 2.503906 25.0625 3.578125 C 24.300781 4.984375 23.289062 6.15625 22.03125 7.09375 C 20.78125 8.03125 19.394531 8.726562 17.875 9.1875 C 16.363281 9.644531 14.828125 9.875 13.265625 9.875 C 13.140625 9.875 13.015625 9.875 12.890625 9.875 C 12.773438 9.875 12.65625 9.875 12.53125 9.875 C 11.519531 9.8125 10.515625 9.722656 9.515625 9.609375 C 8.523438 9.503906 7.539062 9.300781 6.5625 9 C 6.164062 8.875 5.691406 8.710938 5.140625 8.515625 C 4.585938 8.316406 4.066406 8.078125 3.578125 7.796875 C 3.085938 7.523438 2.742188 7.179688 2.546875 6.765625 C 2.347656 6.359375 2.382812 5.863281 2.65625 5.28125 C 2.875 4.851562 3.085938 4.414062 3.296875 3.96875 C 3.515625 3.53125 3.734375 3.09375 3.953125 2.65625 C 4.191406 2.195312 4.507812 1.957031 4.90625 1.9375 C 5.3125 1.925781 5.757812 2.035156 6.25 2.265625 C 6.738281 2.492188 7.210938 2.742188 7.671875 3.015625 C 8.128906 3.296875 8.507812 3.484375 8.8125 3.578125 C 9.457031 3.796875 10.125 3.960938 10.8125 4.078125 C 11.5 4.203125 12.179688 4.265625 12.859375 4.265625 C 14.535156 4.265625 16.03125 3.828125 17.34375 2.953125 C 18.664062 2.085938 19.617188 0.859375 20.203125 -0.734375 C 20.265625 -0.890625 20.304688 -1.035156 20.328125 -1.171875 C 20.359375 -1.304688 20.363281 -1.4375 20.34375 -1.5625 C 20.3125 -2.082031 20.109375 -2.382812 19.734375 -2.46875 C 19.367188 -2.5625 18.945312 -2.546875 18.46875 -2.421875 C 18 -2.304688 17.539062 -2.148438 17.09375 -1.953125 C 16.65625 -1.753906 16.3125 -1.625 16.0625 -1.5625 C 15.363281 -1.34375 14.644531 -1.164062 13.90625 -1.03125 C 13.175781 -0.894531 12.441406 -0.828125 11.703125 -0.828125 C 9.773438 -0.828125 8.0625 -1.316406 6.5625 -2.296875 C 5.34375 -3.085938 4.253906 -3.988281 3.296875 -5 C 2.347656 -6.007812 1.660156 -6.988281 1.234375 -7.9375 C 0.046875 -10.726562 -0.285156 -13.5 0.234375 -16.25 C 0.753906 -19 2.082031 -21.398438 4.21875 -23.453125 C 6.363281 -25.535156 8.828125 -26.578125 11.609375 -26.578125 C 13.722656 -26.578125 15.820312 -25.992188 17.90625 -24.828125 C 18.0625 -24.710938 18.257812 -24.65625 18.5 -24.65625 C 18.863281 -24.65625 19.171875 -24.804688 19.421875 -25.109375 C 19.566406 -25.296875 19.9375 -25.488281 20.53125 -25.6875 C 21.132812 -25.882812 21.84375 -26.054688 22.65625 -26.203125 C 23.46875 -26.359375 24.238281 -26.4375 24.96875 -26.4375 C 25.425781 -26.4375 25.75 -26.40625 25.9375 -26.34375 C 26.125 -26.289062 26.273438 -26.046875 26.390625 -25.609375 C 26.546875 -25.117188 26.59375 -24.546875 26.53125 -23.890625 C 26.46875 -23.234375 26.453125 -22.644531 26.484375 -22.125 C 26.484375 -21.726562 26.484375 -21.335938 26.484375 -20.953125 C 26.484375 -20.566406 26.5 -20.175781 26.53125 -19.78125 Z M 18.40625 -8.71875 C 19.664062 -10.21875 20.296875 -11.976562 20.296875 -14 C 20.296875 -15.34375 19.992188 -16.550781 19.390625 -17.625 C 18.796875 -18.695312 18 -19.539062 17 -20.15625 C 16.007812 -20.769531 14.890625 -21.078125 13.640625 -21.078125 C 12.773438 -21.046875 11.945312 -20.859375 11.15625 -20.515625 C 10.363281 -20.179688 9.660156 -19.691406 9.046875 -19.046875 C 7.609375 -17.578125 6.921875 -15.757812 6.984375 -13.59375 C 7.015625 -12.332031 7.347656 -11.148438 7.984375 -10.046875 C 8.628906 -8.953125 9.445312 -8.066406 10.4375 -7.390625 C 11.4375 -6.710938 12.503906 -6.375 13.640625 -6.375 C 13.640625 -6.375 13.644531 -6.375 13.65625 -6.375 C 13.675781 -6.375 13.6875 -6.375 13.6875 -6.375 C 15.519531 -6.375 17.09375 -7.15625 18.40625 -8.71875 Z M 18.40625 -8.71875 "/></g></g></g></g><g fill="#ffffff" fill-opacity="1"><g transform="translate(173.265738, 36.663185)"><g><path d="M 23.453125 -0.234375 C 22.660156 -0.265625 21.859375 -0.269531 21.046875 -0.25 C 20.234375 -0.238281 19.414062 -0.234375 18.59375 -0.234375 C 18.40625 -0.234375 18.257812 -0.550781 18.15625 -1.1875 C 18.050781 -1.832031 17.984375 -2.675781 17.953125 -3.71875 C 17.921875 -4.757812 17.90625 -5.882812 17.90625 -7.09375 C 17.90625 -8.300781 17.921875 -9.46875 17.953125 -10.59375 C 17.984375 -11.726562 18.003906 -12.707031 18.015625 -13.53125 C 18.035156 -14.363281 18.046875 -14.90625 18.046875 -15.15625 C 18.015625 -16.863281 17.742188 -18.160156 17.234375 -19.046875 C 16.734375 -19.929688 16.109375 -20.539062 15.359375 -20.875 C 14.609375 -21.21875 13.863281 -21.390625 13.125 -21.390625 L 13.03125 -21.390625 C 11.289062 -21.390625 9.875 -20.800781 8.78125 -19.625 C 7.695312 -18.445312 7.125 -16.910156 7.0625 -15.015625 C 7.039062 -13.785156 7.03125 -12.554688 7.03125 -11.328125 C 7.03125 -10.109375 7.03125 -8.890625 7.03125 -7.671875 C 7.050781 -6.722656 7.128906 -5.671875 7.265625 -4.515625 C 7.410156 -3.367188 7.390625 -2.320312 7.203125 -1.375 C 7.085938 -0.675781 6.804688 -0.300781 6.359375 -0.25 C 5.910156 -0.207031 5.410156 -0.171875 4.859375 -0.140625 C 4.492188 -0.109375 4.015625 -0.0664062 3.421875 -0.015625 C 2.828125 0.0234375 2.242188 0 1.671875 -0.09375 C 1.109375 -0.1875 0.6875 -0.414062 0.40625 -0.78125 C 0.0703125 -1.269531 -0.046875 -1.859375 0.046875 -2.546875 C 0.140625 -3.234375 0.203125 -3.835938 0.234375 -4.359375 C 0.347656 -6.046875 0.4375 -7.757812 0.5 -9.5 C 0.59375 -12.800781 0.503906 -16.09375 0.234375 -19.375 C 0.171875 -20.019531 0.125 -20.769531 0.09375 -21.625 C 0.0625 -22.476562 0.128906 -23.296875 0.296875 -24.078125 C 0.460938 -24.859375 0.796875 -25.46875 1.296875 -25.90625 C 1.804688 -26.351562 2.566406 -26.484375 3.578125 -26.296875 C 4.398438 -26.148438 5.207031 -25.960938 6 -25.734375 C 6.800781 -25.503906 7.617188 -25.3125 8.453125 -25.15625 C 8.503906 -25.15625 8.566406 -25.15625 8.640625 -25.15625 C 8.722656 -25.15625 8.78125 -25.15625 8.8125 -25.15625 C 9.394531 -25.15625 9.976562 -25.269531 10.5625 -25.5 C 11.144531 -25.726562 11.738281 -25.960938 12.34375 -26.203125 C 12.957031 -26.453125 13.570312 -26.59375 14.1875 -26.625 C 15.957031 -26.78125 17.640625 -26.472656 19.234375 -25.703125 C 20.609375 -25.066406 21.671875 -24.226562 22.421875 -23.1875 C 23.171875 -22.144531 23.710938 -20.992188 24.046875 -19.734375 C 24.390625 -18.484375 24.601562 -17.179688 24.6875 -15.828125 C 24.78125 -14.484375 24.859375 -13.15625 24.921875 -11.84375 C 24.921875 -11.570312 24.953125 -11.003906 25.015625 -10.140625 C 25.078125 -9.285156 25.113281 -8.300781 25.125 -7.1875 C 25.144531 -6.070312 25.125 -4.984375 25.0625 -3.921875 C 25 -2.867188 24.851562 -1.988281 24.625 -1.28125 C 24.394531 -0.582031 24.050781 -0.234375 23.59375 -0.234375 C 23.5625 -0.234375 23.535156 -0.234375 23.515625 -0.234375 C 23.503906 -0.234375 23.484375 -0.234375 23.453125 -0.234375 Z M 23.453125 -0.234375 "/></g></g></g><g clip-path="url(#9ee70f49fd)"><g fill="#ffffff" fill-opacity="1"><g transform="translate(198.508691, 36.663185)"><g><path d="M 1.75 -28.921875 C 1.070312 -29.347656 0.578125 -29.953125 0.265625 -30.734375 C -0.0351562 -31.515625 -0.046875 -32.363281 0.234375 -33.28125 C 0.753906 -35.082031 1.976562 -36.015625 3.90625 -36.078125 L 4 -36.078125 C 4.945312 -36.078125 5.738281 -35.820312 6.375 -35.3125 C 7.019531 -34.8125 7.453125 -34.117188 7.671875 -33.234375 C 7.941406 -32.128906 7.832031 -31.117188 7.34375 -30.203125 C 6.851562 -29.285156 6.023438 -28.691406 4.859375 -28.421875 C 4.285156 -28.296875 3.726562 -28.28125 3.1875 -28.375 C 2.65625 -28.46875 2.175781 -28.648438 1.75 -28.921875 Z M 1.109375 -24.328125 C 1.535156 -24.609375 2.144531 -24.734375 2.9375 -24.703125 C 3.394531 -24.703125 3.898438 -24.71875 4.453125 -24.75 C 5.003906 -24.78125 5.515625 -24.722656 5.984375 -24.578125 C 6.460938 -24.441406 6.78125 -24.128906 6.9375 -23.640625 C 7.207031 -22.878906 7.296875 -21.953125 7.203125 -20.859375 C 7.109375 -19.773438 7.0625 -18.835938 7.0625 -18.046875 C 7.09375 -16.171875 7.109375 -14.316406 7.109375 -12.484375 C 7.109375 -10.648438 7.125 -8.800781 7.15625 -6.9375 C 7.15625 -6.625 7.191406 -6.109375 7.265625 -5.390625 C 7.347656 -4.671875 7.394531 -3.898438 7.40625 -3.078125 C 7.425781 -2.253906 7.34375 -1.550781 7.15625 -0.96875 C 6.976562 -0.382812 6.613281 -0.078125 6.0625 -0.046875 C 5.351562 -0.015625 4.613281 0.00390625 3.84375 0.015625 C 3.082031 0.0351562 2.351562 0 1.65625 -0.09375 C 1.164062 -0.15625 0.828125 -0.421875 0.640625 -0.890625 C 0.460938 -1.367188 0.363281 -1.941406 0.34375 -2.609375 C 0.332031 -3.285156 0.351562 -3.929688 0.40625 -4.546875 C 0.46875 -5.160156 0.5 -5.632812 0.5 -5.96875 C 0.46875 -7.21875 0.441406 -8.476562 0.421875 -9.75 C 0.410156 -11.019531 0.40625 -12.285156 0.40625 -13.546875 C 0.382812 -14.617188 0.375 -15.6875 0.375 -16.75 C 0.375 -17.820312 0.359375 -18.878906 0.328125 -19.921875 C 0.328125 -20.804688 0.3125 -21.660156 0.28125 -22.484375 C 0.25 -23.316406 0.523438 -23.929688 1.109375 -24.328125 Z M 1.109375 -24.328125 "/></g></g></g></g><g fill="#ffffff" fill-opacity="1"><g transform="translate(206.448394, 36.663185)"><g><path d="M 25.75 -11.65625 C 25.382812 -11.351562 24.84375 -11.144531 24.125 -11.03125 C 23.40625 -10.925781 22.640625 -10.875 21.828125 -10.875 C 21.015625 -10.875 20.253906 -10.890625 19.546875 -10.921875 C 18.847656 -10.953125 18.316406 -10.96875 17.953125 -10.96875 C 16.359375 -10.9375 14.78125 -10.910156 13.21875 -10.890625 C 11.65625 -10.878906 10.082031 -10.875 8.5 -10.875 C 8.007812 -10.875 7.691406 -10.722656 7.546875 -10.421875 C 7.410156 -10.117188 7.394531 -9.773438 7.5 -9.390625 C 7.613281 -9.003906 7.757812 -8.675781 7.9375 -8.40625 C 8.582031 -7.570312 9.382812 -6.898438 10.34375 -6.390625 C 11.3125 -5.890625 12.316406 -5.582031 13.359375 -5.46875 C 14.523438 -5.34375 15.492188 -5.5 16.265625 -5.9375 C 17.046875 -6.382812 17.925781 -6.851562 18.90625 -7.34375 C 19.375 -7.59375 19.691406 -7.742188 19.859375 -7.796875 C 20.023438 -7.859375 20.304688 -7.722656 20.703125 -7.390625 C 21.128906 -7.054688 21.535156 -6.597656 21.921875 -6.015625 C 22.304688 -5.429688 22.679688 -4.925781 23.046875 -4.5 C 23.441406 -3.976562 23.425781 -3.488281 23 -3.03125 C 22.570312 -2.570312 21.910156 -2.148438 21.015625 -1.765625 C 20.128906 -1.378906 19.164062 -1.050781 18.125 -0.78125 C 17.09375 -0.507812 16.15625 -0.296875 15.3125 -0.140625 C 14.46875 0.015625 13.894531 0.09375 13.59375 0.09375 C 11.539062 0.09375 9.648438 -0.3125 7.921875 -1.125 C 6.191406 -1.9375 4.710938 -3.035156 3.484375 -4.421875 C 2.265625 -5.816406 1.347656 -7.382812 0.734375 -9.125 C 0.117188 -10.875 -0.117188 -12.703125 0.015625 -14.609375 C 0.160156 -16.523438 0.753906 -18.390625 1.796875 -20.203125 C 2.585938 -21.609375 3.648438 -22.800781 4.984375 -23.78125 C 6.316406 -24.757812 7.785156 -25.484375 9.390625 -25.953125 C 10.992188 -26.429688 12.632812 -26.644531 14.3125 -26.59375 C 16 -26.550781 17.597656 -26.21875 19.109375 -25.59375 C 20.628906 -24.96875 21.957031 -24.023438 23.09375 -22.765625 C 23.613281 -22.179688 24.109375 -21.453125 24.578125 -20.578125 C 25.054688 -19.710938 25.460938 -18.773438 25.796875 -17.765625 C 26.128906 -16.753906 26.332031 -15.765625 26.40625 -14.796875 C 26.488281 -13.835938 26.394531 -12.960938 26.125 -12.171875 C 26.0625 -11.984375 25.9375 -11.8125 25.75 -11.65625 Z M 18.828125 -16.4375 C 18.910156 -16.644531 18.9375 -16.875 18.90625 -17.125 C 18.882812 -17.488281 18.71875 -17.835938 18.40625 -18.171875 C 17.582031 -19.335938 16.507812 -20.195312 15.1875 -20.75 C 13.875 -21.300781 12.53125 -21.269531 11.15625 -20.65625 C 10.539062 -20.382812 9.960938 -20.03125 9.421875 -19.59375 C 8.890625 -19.164062 8.394531 -18.707031 7.9375 -18.21875 C 7.820312 -18.101562 7.703125 -17.96875 7.578125 -17.8125 C 7.453125 -17.65625 7.359375 -17.488281 7.296875 -17.3125 C 7.171875 -16.9375 7.226562 -16.597656 7.46875 -16.296875 C 7.71875 -15.992188 8.03125 -15.84375 8.40625 -15.84375 L 17.765625 -15.84375 C 18.285156 -15.84375 18.640625 -16.039062 18.828125 -16.4375 Z M 18.828125 -16.4375 "/></g></g></g><g fill="#ffffff" fill-opacity="1"><g transform="translate(232.976476, 36.663185)"><g/></g></g><g fill="#ffffff" fill-opacity="1"><g transform="translate(251.426651, 36.663185)"><g><path d="M 23.140625 -1.140625 C 21.054688 -3.773438 18.992188 -6.421875 16.953125 -9.078125 C 14.921875 -11.742188 12.863281 -14.378906 10.78125 -16.984375 C 10.632812 -17.171875 10.359375 -17.445312 9.953125 -17.8125 C 9.554688 -18.175781 9.132812 -18.488281 8.6875 -18.75 C 8.25 -19.007812 7.867188 -19.109375 7.546875 -19.046875 C 7.222656 -18.984375 7.0625 -18.632812 7.0625 -18 C 7.0625 -15.582031 7.109375 -13.175781 7.203125 -10.78125 C 7.296875 -8.394531 7.28125 -5.992188 7.15625 -3.578125 C 7.125 -3.148438 7.109375 -2.695312 7.109375 -2.21875 C 7.109375 -1.75 7.050781 -1.300781 6.9375 -0.875 C 6.84375 -0.476562 6.710938 -0.253906 6.546875 -0.203125 C 6.378906 -0.160156 6.0625 -0.140625 5.59375 -0.140625 C 4.769531 -0.171875 3.9375 -0.1875 3.09375 -0.1875 C 2.257812 -0.1875 1.410156 -0.1875 0.546875 -0.1875 C 0.367188 -0.1875 0.238281 -0.53125 0.15625 -1.21875 C 0.0820312 -1.90625 0.046875 -2.757812 0.046875 -3.78125 C 0.046875 -4.8125 0.0507812 -5.859375 0.0625 -6.921875 C 0.0820312 -7.992188 0.109375 -8.9375 0.140625 -9.75 C 0.171875 -10.5625 0.1875 -11.09375 0.1875 -11.34375 C 0.1875 -14.707031 0.175781 -18.078125 0.15625 -21.453125 C 0.144531 -24.835938 0.15625 -28.210938 0.1875 -31.578125 C 0.1875 -32.035156 0.21875 -32.472656 0.28125 -32.890625 C 0.34375 -33.304688 0.617188 -33.617188 1.109375 -33.828125 C 1.597656 -34.015625 2.140625 -34.097656 2.734375 -34.078125 C 3.328125 -34.066406 3.867188 -34.015625 4.359375 -33.921875 C 5.492188 -33.710938 6.503906 -33.253906 7.390625 -32.546875 C 8.273438 -31.835938 9.023438 -31.039062 9.640625 -30.15625 C 10.554688 -28.84375 11.492188 -27.535156 12.453125 -26.234375 C 13.421875 -24.929688 14.394531 -23.640625 15.375 -22.359375 C 16.257812 -21.222656 17.140625 -20.019531 18.015625 -18.75 C 18.890625 -17.476562 19.847656 -16.351562 20.890625 -15.375 C 21.191406 -15.070312 21.523438 -14.875 21.890625 -14.78125 C 22.378906 -14.65625 22.789062 -14.757812 23.125 -15.09375 C 23.46875 -15.4375 23.703125 -15.820312 23.828125 -16.25 C 23.921875 -16.550781 23.972656 -16.867188 23.984375 -17.203125 C 24.003906 -17.546875 24.015625 -17.867188 24.015625 -18.171875 C 23.953125 -20.503906 23.894531 -22.816406 23.84375 -25.109375 C 23.800781 -27.398438 23.882812 -29.695312 24.09375 -32 C 24.1875 -32.757812 24.453125 -33.285156 24.890625 -33.578125 C 25.335938 -33.867188 25.882812 -34.019531 26.53125 -34.03125 C 27.175781 -34.050781 27.828125 -34.003906 28.484375 -33.890625 C 29.140625 -33.785156 29.726562 -33.71875 30.25 -33.6875 C 30.46875 -33.6875 30.664062 -33.644531 30.84375 -33.5625 C 31.09375 -33.40625 31.234375 -33.132812 31.265625 -32.75 C 31.296875 -32.375 31.285156 -31.976562 31.234375 -31.5625 C 31.191406 -31.144531 31.15625 -30.816406 31.125 -30.578125 C 31.125 -29.960938 31.125 -29.335938 31.125 -28.703125 C 31.125 -28.078125 31.125 -27.460938 31.125 -26.859375 C 31.09375 -25.628906 31.078125 -24.398438 31.078125 -23.171875 C 31.078125 -21.953125 31.078125 -20.71875 31.078125 -19.46875 C 31.078125 -17.082031 31.078125 -14.675781 31.078125 -12.25 C 31.078125 -9.832031 31.078125 -7.445312 31.078125 -5.09375 C 31.078125 -4.414062 31.097656 -3.703125 31.140625 -2.953125 C 31.191406 -2.210938 31.171875 -1.503906 31.078125 -0.828125 C 30.984375 -0.304688 30.789062 -0.0507812 30.5 -0.0625 C 30.207031 -0.0820312 29.847656 -0.09375 29.421875 -0.09375 C 28.835938 -0.09375 28.25 -0.09375 27.65625 -0.09375 C 27.0625 -0.09375 26.457031 -0.09375 25.84375 -0.09375 C 25.226562 -0.09375 24.722656 -0.144531 24.328125 -0.25 C 23.929688 -0.351562 23.535156 -0.648438 23.140625 -1.140625 Z M 23.140625 -1.140625 "/></g></g></g><g fill="#ffffff" fill-opacity="1"><g transform="translate(282.819847, 36.663185)"><g><path d="M 26.171875 -28.328125 C 25.859375 -28.015625 25.425781 -27.894531 24.875 -27.96875 C 24.332031 -28.050781 23.84375 -28.09375 23.40625 -28.09375 C 22.519531 -28.09375 21.632812 -28.09375 20.75 -28.09375 C 19.863281 -28.09375 18.976562 -28.09375 18.09375 -28.09375 C 17.65625 -28.09375 17.351562 -27.945312 17.1875 -27.65625 C 17.019531 -27.363281 16.925781 -27.019531 16.90625 -26.625 C 16.894531 -26.226562 16.890625 -25.875 16.890625 -25.5625 C 16.890625 -21.53125 16.890625 -17.5 16.890625 -13.46875 C 16.890625 -9.445312 16.90625 -5.414062 16.9375 -1.375 C 16.9375 -0.882812 16.804688 -0.5625 16.546875 -0.40625 C 16.285156 -0.257812 15.925781 -0.203125 15.46875 -0.234375 C 14.976562 -0.265625 14.476562 -0.285156 13.96875 -0.296875 C 13.46875 -0.316406 12.957031 -0.3125 12.4375 -0.28125 C 12.101562 -0.28125 11.707031 -0.207031 11.25 -0.0625 C 10.789062 0.0703125 10.40625 0 10.09375 -0.28125 C 9.851562 -0.519531 9.734375 -0.914062 9.734375 -1.46875 C 9.734375 -2.019531 9.734375 -2.445312 9.734375 -2.75 C 9.734375 -5.019531 9.738281 -7.285156 9.75 -9.546875 C 9.769531 -11.816406 9.78125 -14.066406 9.78125 -16.296875 C 9.78125 -17.460938 9.78125 -18.617188 9.78125 -19.765625 C 9.78125 -20.910156 9.765625 -22.050781 9.734375 -23.1875 C 9.734375 -23.488281 9.765625 -23.898438 9.828125 -24.421875 C 9.890625 -24.941406 9.910156 -25.46875 9.890625 -26 C 9.878906 -26.539062 9.78125 -27 9.59375 -27.375 C 9.40625 -27.757812 9.066406 -27.953125 8.578125 -27.953125 C 7.359375 -27.953125 6.144531 -27.941406 4.9375 -27.921875 C 3.726562 -27.910156 2.507812 -27.890625 1.28125 -27.859375 C 1.132812 -27.859375 0.96875 -27.863281 0.78125 -27.875 C 0.59375 -27.894531 0.441406 -27.96875 0.328125 -28.09375 C 0.203125 -28.21875 0.125 -28.363281 0.09375 -28.53125 C 0.0625 -28.695312 0.046875 -28.859375 0.046875 -29.015625 C 0.015625 -29.710938 0 -30.40625 0 -31.09375 C 0 -31.789062 0 -32.472656 0 -33.140625 C 0 -33.265625 0.00390625 -33.382812 0.015625 -33.5 C 0.0351562 -33.625 0.09375 -33.734375 0.1875 -33.828125 C 0.3125 -33.953125 0.445312 -34.03125 0.59375 -34.0625 C 0.75 -34.09375 0.90625 -34.109375 1.0625 -34.109375 C 5.0625 -34.015625 9.050781 -33.96875 13.03125 -33.96875 C 17.007812 -33.96875 20.988281 -34 24.96875 -34.0625 C 25.1875 -34.0625 25.398438 -34.050781 25.609375 -34.03125 C 25.828125 -34.019531 26.015625 -33.9375 26.171875 -33.78125 C 26.316406 -33.632812 26.410156 -33.445312 26.453125 -33.21875 C 26.503906 -32.988281 26.546875 -32.765625 26.578125 -32.546875 C 26.578125 -32.179688 26.582031 -31.8125 26.59375 -31.4375 C 26.613281 -31.070312 26.625 -30.707031 26.625 -30.34375 C 26.65625 -30.039062 26.660156 -29.742188 26.640625 -29.453125 C 26.628906 -29.160156 26.546875 -28.890625 26.390625 -28.640625 C 26.359375 -28.554688 26.285156 -28.453125 26.171875 -28.328125 Z M 26.171875 -28.328125 "/></g></g></g><g fill="#ffffff" fill-opacity="1"><g transform="translate(309.577382, 36.663185)"><g><path d="M 13.953125 -13.8125 C 12.910156 -13.875 11.863281 -13.875 10.8125 -13.8125 C 9.757812 -13.75 8.847656 -13.367188 8.078125 -12.671875 C 7.460938 -12.117188 7.085938 -11.390625 6.953125 -10.484375 C 6.816406 -9.585938 6.796875 -8.65625 6.890625 -7.6875 C 6.984375 -6.726562 7.039062 -5.878906 7.0625 -5.140625 C 7.09375 -4.773438 7.140625 -4.316406 7.203125 -3.765625 C 7.265625 -3.210938 7.300781 -2.660156 7.3125 -2.109375 C 7.332031 -1.554688 7.25 -1.113281 7.0625 -0.78125 C 6.820312 -0.320312 6.398438 -0.0664062 5.796875 -0.015625 C 5.203125 0.0234375 4.578125 -0.015625 3.921875 -0.140625 C 3.265625 -0.265625 2.722656 -0.328125 2.296875 -0.328125 C 1.503906 -0.328125 0.929688 -0.347656 0.578125 -0.390625 C 0.222656 -0.429688 0.046875 -0.882812 0.046875 -1.75 C 0.046875 -3.363281 0.046875 -4.972656 0.046875 -6.578125 C 0.046875 -8.191406 0.046875 -9.796875 0.046875 -11.390625 C 0.078125 -14.753906 0.09375 -18.140625 0.09375 -21.546875 C 0.09375 -24.960938 0.0625 -28.351562 0 -31.71875 C 0 -32.757812 0.132812 -33.414062 0.40625 -33.6875 C 0.65625 -33.9375 1.191406 -34.0625 2.015625 -34.0625 C 2.078125 -34.0625 2.140625 -34.0625 2.203125 -34.0625 C 2.265625 -34.0625 2.3125 -34.0625 2.34375 -34.0625 C 2.863281 -34.03125 3.320312 -34.015625 3.71875 -34.015625 C 4.113281 -34.015625 4.476562 -34.015625 4.8125 -34.015625 C 5.15625 -34.015625 5.5 -34.019531 5.84375 -34.03125 C 6.195312 -34.050781 6.503906 -34 6.765625 -33.875 C 7.023438 -33.75 7.15625 -33.457031 7.15625 -33 C 7.15625 -31.65625 7.144531 -30.300781 7.125 -28.9375 C 7.113281 -27.582031 7.109375 -26.210938 7.109375 -24.828125 C 7.109375 -24.554688 7.078125 -24.113281 7.015625 -23.5 C 6.960938 -22.882812 6.941406 -22.25 6.953125 -21.59375 C 6.972656 -20.9375 7.070312 -20.378906 7.25 -19.921875 C 7.4375 -19.460938 7.773438 -19.234375 8.265625 -19.234375 C 8.753906 -19.234375 9.226562 -19.222656 9.6875 -19.203125 C 10.144531 -19.191406 10.601562 -19.1875 11.0625 -19.1875 C 11.488281 -19.1875 11.914062 -19.1875 12.34375 -19.1875 C 12.769531 -19.1875 13.203125 -19.1875 13.640625 -19.1875 C 14.179688 -19.1875 14.910156 -19.144531 15.828125 -19.0625 C 16.753906 -18.988281 17.648438 -18.96875 18.515625 -19 C 19.390625 -19.03125 20.054688 -19.234375 20.515625 -19.609375 C 20.941406 -19.941406 21.203125 -20.367188 21.296875 -20.890625 C 21.390625 -21.410156 21.421875 -21.953125 21.390625 -22.515625 C 21.359375 -23.078125 21.34375 -23.601562 21.34375 -24.09375 C 21.40625 -25.445312 21.421875 -26.800781 21.390625 -28.15625 C 21.359375 -29.519531 21.34375 -30.875 21.34375 -32.21875 C 21.3125 -32.769531 21.375 -33.207031 21.53125 -33.53125 C 21.6875 -33.851562 22.050781 -34.015625 22.625 -34.015625 C 23.238281 -34.015625 23.84375 -34.015625 24.4375 -34.015625 C 25.039062 -34.015625 25.632812 -34.015625 26.21875 -34.015625 C 26.914062 -33.984375 27.414062 -33.96875 27.71875 -33.96875 C 28.03125 -33.96875 28.203125 -33.585938 28.234375 -32.828125 C 28.328125 -31.691406 28.34375 -30.535156 28.28125 -29.359375 C 28.21875 -28.179688 28.1875 -27.007812 28.1875 -25.84375 C 28.1875 -24.4375 28.1875 -23.03125 28.1875 -21.625 C 28.1875 -20.21875 28.1875 -18.796875 28.1875 -17.359375 C 28.1875 -15.671875 28.234375 -13.992188 28.328125 -12.328125 C 28.421875 -10.660156 28.484375 -8.984375 28.515625 -7.296875 C 28.515625 -7.023438 28.523438 -6.53125 28.546875 -5.8125 C 28.578125 -5.09375 28.578125 -4.3125 28.546875 -3.46875 C 28.523438 -2.625 28.410156 -1.894531 28.203125 -1.28125 C 28.003906 -0.675781 27.675781 -0.359375 27.21875 -0.328125 C 26.363281 -0.296875 25.503906 -0.285156 24.640625 -0.296875 C 23.785156 -0.316406 22.929688 -0.328125 22.078125 -0.328125 C 21.585938 -0.328125 21.300781 -0.582031 21.21875 -1.09375 C 21.144531 -1.613281 21.160156 -2.1875 21.265625 -2.8125 C 21.378906 -3.445312 21.4375 -3.914062 21.4375 -4.21875 C 21.5 -5.289062 21.53125 -6.378906 21.53125 -7.484375 C 21.53125 -8.585938 21.453125 -9.6875 21.296875 -10.78125 C 21.171875 -11.613281 20.859375 -12.25 20.359375 -12.6875 C 19.859375 -13.132812 19.242188 -13.429688 18.515625 -13.578125 C 17.796875 -13.734375 17.070312 -13.78125 16.34375 -13.71875 C 15.976562 -13.71875 15.59375 -13.722656 15.1875 -13.734375 C 14.789062 -13.753906 14.378906 -13.78125 13.953125 -13.8125 Z M 13.953125 -13.8125 "/></g></g></g></g></g><g clip-path="url(#8f29d27227)"><g clip-path="url(#fe108cee91)"><g transform="matrix(1, 0, 0, 1, 250, 191)"><g clip-path="url(#2a47f1f384)"><g clip-path="url(#1b769c9241)"><g clip-path="url(#6b27a6e435)"><path fill="#ffffff" d="M 0.695312 0.171875 L 10.207031 0.171875 L 10.207031 9.679688 L 0.695312 9.679688 Z M 0.695312 0.171875 " fill-opacity="1" fill-rule="nonzero"/></g></g></g></g></g></g></svg>