<svg xmlns="http://www.w3.org/2000/svg" xmlns:xlink="http://www.w3.org/1999/xlink" width="500" zoomAndPan="magnify" viewBox="0 0 375 374.999991" height="500" preserveAspectRatio="xMidYMid meet" version="1.0"><defs><g/><clipPath id="b89ae3ba29"><path d="M 251.054688 179.101562 L 259.453125 179.101562 L 259.453125 187.5 L 251.054688 187.5 Z M 251.054688 179.101562 " clip-rule="nonzero"/></clipPath><clipPath id="492504d399"><path d="M 255.253906 179.101562 C 252.933594 179.101562 251.054688 180.980469 251.054688 183.300781 C 251.054688 185.621094 252.933594 187.5 255.253906 187.5 C 257.574219 187.5 259.453125 185.621094 259.453125 183.300781 C 259.453125 180.980469 257.574219 179.101562 255.253906 179.101562 Z M 255.253906 179.101562 " clip-rule="nonzero"/></clipPath><clipPath id="b290e544b6"><path d="M 0.0546875 0.101562 L 8.453125 0.101562 L 8.453125 8.5 L 0.0546875 8.5 Z M 0.0546875 0.101562 " clip-rule="nonzero"/></clipPath><clipPath id="4ef294c6ec"><path d="M 4.253906 0.101562 C 1.933594 0.101562 0.0546875 1.980469 0.0546875 4.300781 C 0.0546875 6.621094 1.933594 8.5 4.253906 8.5 C 6.574219 8.5 8.453125 6.621094 8.453125 4.300781 C 8.453125 1.980469 6.574219 0.101562 4.253906 0.101562 Z M 4.253906 0.101562 " clip-rule="nonzero"/></clipPath><clipPath id="30385fc262"><rect x="0" width="9" y="0" height="9"/></clipPath></defs><g fill="#1b1b1b" fill-opacity="1"><g transform="translate(17.466217, 184.615008)"><g><path d="M 23.0625 -23.65625 C 23.644531 -23.007812 23.828125 -22.320312 23.609375 -21.59375 C 23.515625 -21.257812 23.351562 -20.945312 23.125 -20.65625 C 22.894531 -20.363281 22.660156 -20.078125 22.421875 -19.796875 C 22.265625 -19.648438 22.109375 -19.5 21.953125 -19.34375 C 21.804688 -19.1875 21.65625 -19.035156 21.5 -18.890625 C 21.257812 -18.609375 20.929688 -18.515625 20.515625 -18.609375 C 20.097656 -18.703125 19.679688 -18.851562 19.265625 -19.0625 C 18.859375 -19.28125 18.503906 -19.4375 18.203125 -19.53125 C 17.523438 -19.769531 16.859375 -19.984375 16.203125 -20.171875 C 15.546875 -20.359375 14.867188 -20.492188 14.171875 -20.578125 C 14.015625 -20.609375 13.867188 -20.625 13.734375 -20.625 C 13.597656 -20.625 13.453125 -20.625 13.296875 -20.625 C 11.796875 -20.625 10.457031 -20.171875 9.28125 -19.265625 C 8.101562 -18.367188 7.300781 -17.171875 6.875 -15.671875 C 6.414062 -14.054688 6.460938 -12.46875 7.015625 -10.90625 C 7.566406 -9.351562 8.515625 -8.101562 9.859375 -7.15625 C 10.898438 -6.445312 12.242188 -6.09375 13.890625 -6.09375 C 15.992188 -6.09375 17.691406 -6.597656 18.984375 -7.609375 C 19.585938 -8.097656 20.097656 -8.410156 20.515625 -8.546875 C 20.929688 -8.679688 21.425781 -8.398438 22 -7.703125 C 22.3125 -7.398438 22.609375 -7.070312 22.890625 -6.71875 C 23.179688 -6.363281 23.46875 -6.003906 23.75 -5.640625 C 24.113281 -5.148438 24.171875 -4.675781 23.921875 -4.21875 C 23.679688 -3.757812 23.269531 -3.332031 22.6875 -2.9375 C 22.113281 -2.539062 21.507812 -2.195312 20.875 -1.90625 C 20.25 -1.613281 19.769531 -1.390625 19.4375 -1.234375 C 17.570312 -0.347656 15.613281 0.09375 13.5625 0.09375 C 11.550781 0.09375 9.628906 -0.335938 7.796875 -1.203125 C 5.960938 -2.078125 4.328125 -3.3125 2.890625 -4.90625 C 1.660156 -6.34375 0.847656 -7.820312 0.453125 -9.34375 C 0.0546875 -10.875 -0.0703125 -12.375 0.0625 -13.84375 C 0.207031 -15.3125 0.460938 -16.640625 0.828125 -17.828125 C 1.617188 -20.273438 2.90625 -22.234375 4.6875 -23.703125 C 6.476562 -25.171875 8.707031 -26.070312 11.375 -26.40625 C 12.257812 -26.5 13.082031 -26.546875 13.84375 -26.546875 C 14.269531 -26.546875 14.894531 -26.488281 15.71875 -26.375 C 16.550781 -26.269531 17.4375 -26.101562 18.375 -25.875 C 19.320312 -25.644531 20.222656 -25.347656 21.078125 -24.984375 C 21.941406 -24.617188 22.601562 -24.175781 23.0625 -23.65625 Z M 23.0625 -23.65625 "/></g></g></g><g fill="#1b1b1b" fill-opacity="1"><g transform="translate(41.618444, 184.615008)"><g><path d="M 0.046875 -13.296875 C 0.015625 -15.003906 0.347656 -16.707031 1.046875 -18.40625 C 1.753906 -20.101562 2.734375 -21.59375 3.984375 -22.875 C 5.179688 -24.09375 6.539062 -25.023438 8.0625 -25.671875 C 9.59375 -26.316406 11.171875 -26.640625 12.796875 -26.640625 C 12.941406 -26.640625 13.097656 -26.640625 13.265625 -26.640625 C 13.441406 -26.640625 13.601562 -26.640625 13.75 -26.640625 C 13.75 -26.640625 13.753906 -26.640625 13.765625 -26.640625 C 13.785156 -26.640625 13.796875 -26.640625 13.796875 -26.640625 C 16.453125 -26.640625 18.796875 -26.085938 20.828125 -24.984375 C 22.867188 -23.878906 24.46875 -22.347656 25.625 -20.390625 C 26.789062 -18.441406 27.375 -16.179688 27.375 -13.609375 C 27.375 -9.609375 26.117188 -6.351562 23.609375 -3.84375 C 22.390625 -2.625 20.929688 -1.6875 19.234375 -1.03125 C 17.535156 -0.375 15.691406 -0.046875 13.703125 -0.046875 C 11.804688 -0.046875 10.039062 -0.390625 8.40625 -1.078125 C 6.769531 -1.765625 5.332031 -2.710938 4.09375 -3.921875 C 2.863281 -5.128906 1.890625 -6.535156 1.171875 -8.140625 C 0.453125 -9.742188 0.078125 -11.460938 0.046875 -13.296875 Z M 13.5625 -21.1875 C 12.5 -21.1875 11.460938 -20.835938 10.453125 -20.140625 C 9.441406 -19.453125 8.609375 -18.566406 7.953125 -17.484375 C 7.296875 -16.398438 6.953125 -15.265625 6.921875 -14.078125 C 6.890625 -12.765625 7.101562 -11.492188 7.5625 -10.265625 C 8.019531 -9.046875 8.722656 -8.019531 9.671875 -7.1875 C 10.617188 -6.363281 11.796875 -5.878906 13.203125 -5.734375 C 14.765625 -5.578125 16.078125 -5.816406 17.140625 -6.453125 C 18.210938 -7.097656 19.039062 -7.976562 19.625 -9.09375 C 20.207031 -10.207031 20.523438 -11.429688 20.578125 -12.765625 C 20.640625 -14.097656 20.441406 -15.375 19.984375 -16.59375 C 19.523438 -17.8125 18.789062 -18.84375 17.78125 -19.6875 C 16.78125 -20.53125 15.5 -21.03125 13.9375 -21.1875 C 13.875 -21.1875 13.8125 -21.1875 13.75 -21.1875 C 13.6875 -21.1875 13.625 -21.1875 13.5625 -21.1875 Z M 13.5625 -21.1875 "/></g></g></g><g fill="#1b1b1b" fill-opacity="1"><g transform="translate(69.070575, 184.615008)"><g><path d="M 29.296875 -20.765625 C 27.921875 -20.585938 26.878906 -20.160156 26.171875 -19.484375 C 25.472656 -18.804688 24.992188 -17.972656 24.734375 -16.984375 C 24.472656 -15.992188 24.34375 -14.945312 24.34375 -13.84375 C 24.34375 -12.738281 24.359375 -11.65625 24.390625 -10.59375 C 24.390625 -10.375 24.410156 -9.890625 24.453125 -9.140625 C 24.503906 -8.390625 24.546875 -7.535156 24.578125 -6.578125 C 24.609375 -5.617188 24.597656 -4.671875 24.546875 -3.734375 C 24.503906 -2.804688 24.394531 -2.023438 24.21875 -1.390625 C 24.050781 -0.765625 23.800781 -0.421875 23.46875 -0.359375 C 22.914062 -0.304688 22.296875 -0.222656 21.609375 -0.109375 C 20.921875 -0.00390625 20.253906 0.0234375 19.609375 -0.015625 C 18.972656 -0.0664062 18.441406 -0.257812 18.015625 -0.59375 C 17.585938 -0.925781 17.375 -1.492188 17.375 -2.296875 C 17.34375 -4.554688 17.328125 -6.820312 17.328125 -9.09375 C 17.328125 -11.375 17.234375 -13.628906 17.046875 -15.859375 C 16.960938 -17.109375 16.617188 -18.210938 16.015625 -19.171875 C 15.421875 -20.140625 14.40625 -20.6875 12.96875 -20.8125 C 12.882812 -20.84375 12.765625 -20.859375 12.609375 -20.859375 C 11.328125 -20.859375 10.296875 -20.550781 9.515625 -19.9375 C 8.734375 -19.332031 8.148438 -18.539062 7.765625 -17.5625 C 7.390625 -16.582031 7.140625 -15.550781 7.015625 -14.46875 C 6.890625 -13.382812 6.84375 -12.351562 6.875 -11.375 C 6.90625 -10.03125 6.925781 -8.675781 6.9375 -7.3125 C 6.957031 -5.945312 6.96875 -4.59375 6.96875 -3.25 C 7 -2.1875 6.890625 -1.445312 6.640625 -1.03125 C 6.398438 -0.613281 5.988281 -0.367188 5.40625 -0.296875 C 4.820312 -0.222656 4.03125 -0.140625 3.03125 -0.046875 C 1.863281 0.046875 1.082031 -0.207031 0.6875 -0.8125 C 0.289062 -1.425781 0.09375 -2.269531 0.09375 -3.34375 C 0.09375 -5.507812 0.09375 -7.691406 0.09375 -9.890625 C 0.09375 -12.097656 0.09375 -14.300781 0.09375 -16.5 C 0.09375 -17.601562 0.09375 -18.695312 0.09375 -19.78125 C 0.09375 -20.863281 0.09375 -21.957031 0.09375 -23.0625 C 0.09375 -23.488281 0.0664062 -24.003906 0.015625 -24.609375 C -0.0234375 -25.222656 0.101562 -25.6875 0.40625 -26 C 0.53125 -26.144531 0.820312 -26.21875 1.28125 -26.21875 C 1.375 -26.21875 1.476562 -26.21875 1.59375 -26.21875 C 1.71875 -26.21875 1.84375 -26.203125 1.96875 -26.171875 C 2.394531 -26.109375 2.804688 -26.039062 3.203125 -25.96875 C 3.609375 -25.894531 4.007812 -25.828125 4.40625 -25.765625 C 5.039062 -25.640625 5.6875 -25.523438 6.34375 -25.421875 C 7 -25.316406 7.664062 -25.21875 8.34375 -25.125 C 8.40625 -25.125 8.457031 -25.125 8.5 -25.125 C 8.550781 -25.125 8.59375 -25.125 8.625 -25.125 C 8.925781 -25.125 9.195312 -25.164062 9.4375 -25.25 C 9.6875 -25.34375 9.914062 -25.421875 10.125 -25.484375 C 10.1875 -25.546875 10.253906 -25.582031 10.328125 -25.59375 C 10.410156 -25.613281 10.46875 -25.640625 10.5 -25.671875 C 11.351562 -25.941406 12.128906 -26.15625 12.828125 -26.3125 C 13.535156 -26.46875 14.195312 -26.546875 14.8125 -26.546875 C 16.675781 -26.546875 18.265625 -25.828125 19.578125 -24.390625 C 20.429688 -23.535156 21.316406 -23.109375 22.234375 -23.109375 C 22.785156 -23.109375 23.28125 -23.226562 23.71875 -23.46875 C 24.164062 -23.71875 24.570312 -23.976562 24.9375 -24.25 C 25.03125 -24.3125 25.113281 -24.375 25.1875 -24.4375 C 25.269531 -24.5 25.335938 -24.546875 25.390625 -24.578125 C 27.378906 -25.921875 29.488281 -26.59375 31.71875 -26.59375 C 33.25 -26.59375 34.703125 -26.269531 36.078125 -25.625 C 37.453125 -24.976562 38.644531 -24.03125 39.65625 -22.78125 C 40.320312 -21.957031 40.800781 -21.019531 41.09375 -19.96875 C 41.382812 -18.914062 41.566406 -17.800781 41.640625 -16.625 C 41.722656 -15.445312 41.753906 -14.273438 41.734375 -13.109375 C 41.722656 -11.953125 41.765625 -10.867188 41.859375 -9.859375 C 41.972656 -8.515625 42.09375 -7.125 42.21875 -5.6875 C 42.34375 -4.25 42.144531 -2.875 41.625 -1.5625 C 41.414062 -1.039062 41.09375 -0.703125 40.65625 -0.546875 C 40.226562 -0.398438 39.753906 -0.347656 39.234375 -0.390625 C 38.722656 -0.429688 38.191406 -0.4375 37.640625 -0.40625 C 36.867188 -0.40625 36.304688 -0.441406 35.953125 -0.515625 C 35.609375 -0.597656 35.378906 -0.816406 35.265625 -1.171875 C 35.160156 -1.523438 35.082031 -2.097656 35.03125 -2.890625 C 34.90625 -5.148438 34.859375 -7.425781 34.890625 -9.71875 C 34.921875 -12.007812 34.8125 -14.253906 34.5625 -16.453125 C 34.414062 -17.828125 33.953125 -18.90625 33.171875 -19.6875 C 32.390625 -20.46875 31.390625 -20.859375 30.171875 -20.859375 C 30.046875 -20.859375 29.90625 -20.847656 29.75 -20.828125 C 29.59375 -20.816406 29.441406 -20.796875 29.296875 -20.765625 Z M 29.296875 -20.765625 "/></g></g></g><g fill="#1b1b1b" fill-opacity="1"><g transform="translate(111.418095, 184.615008)"><g><path d="M 22.734375 -2.9375 C 20.929688 -1.40625 18.789062 -0.507812 16.3125 -0.25 C 13.84375 0.0078125 11.382812 -0.457031 8.9375 -1.65625 C 8.8125 -1.738281 8.644531 -1.78125 8.4375 -1.78125 C 8.21875 -1.78125 8.003906 -1.722656 7.796875 -1.609375 C 7.429688 -1.390625 7.25 -1.050781 7.25 -0.59375 C 7.25 -0.132812 7.25 0.320312 7.25 0.78125 C 7.25 1.238281 7.25 1.695312 7.25 2.15625 C 7.25 2.457031 7.273438 2.953125 7.328125 3.640625 C 7.390625 4.328125 7.441406 5.066406 7.484375 5.859375 C 7.535156 6.660156 7.53125 7.375 7.46875 8 C 7.40625 8.625 7.238281 9.03125 6.96875 9.21875 C 6.84375 9.28125 6.703125 9.320312 6.546875 9.34375 C 6.398438 9.375 6.25 9.40625 6.09375 9.4375 C 5.300781 9.53125 4.484375 9.628906 3.640625 9.734375 C 2.804688 9.847656 2.066406 9.773438 1.421875 9.515625 C 0.773438 9.253906 0.378906 8.617188 0.234375 7.609375 C 0.015625 5.804688 -0.03125 4.007812 0.09375 2.21875 C 0.21875 0.4375 0.28125 -1.34375 0.28125 -3.125 C 0.28125 -6.570312 0.285156 -10.078125 0.296875 -13.640625 C 0.316406 -17.203125 0.296875 -20.738281 0.234375 -24.25 C 0.234375 -24.894531 0.269531 -25.351562 0.34375 -25.625 C 0.414062 -25.90625 0.5 -26.085938 0.59375 -26.171875 C 0.875 -26.453125 1.328125 -26.535156 1.953125 -26.421875 C 2.578125 -26.316406 3.21875 -26.164062 3.875 -25.96875 C 4.53125 -25.769531 5.007812 -25.640625 5.3125 -25.578125 C 6.570312 -25.367188 7.75 -25.351562 8.84375 -25.53125 C 9.945312 -25.71875 11.054688 -25.945312 12.171875 -26.21875 C 13.285156 -26.5 14.453125 -26.640625 15.671875 -26.640625 C 17.421875 -26.640625 19 -26.28125 20.40625 -25.5625 C 21.8125 -24.84375 23 -23.863281 23.96875 -22.625 C 24.945312 -21.382812 25.71875 -20 26.28125 -18.46875 C 26.851562 -16.945312 27.171875 -15.367188 27.234375 -13.734375 C 27.296875 -12.097656 27.097656 -10.515625 26.640625 -8.984375 C 26.242188 -7.703125 25.710938 -6.554688 25.046875 -5.546875 C 24.390625 -4.535156 23.617188 -3.664062 22.734375 -2.9375 Z M 13.5625 -5.546875 C 13.625 -5.546875 13.671875 -5.546875 13.703125 -5.546875 C 13.734375 -5.546875 13.765625 -5.546875 13.796875 -5.546875 C 15.046875 -5.609375 16.160156 -5.988281 17.140625 -6.6875 C 18.117188 -7.394531 18.898438 -8.328125 19.484375 -9.484375 C 20.066406 -10.648438 20.34375 -11.9375 20.3125 -13.34375 C 20.3125 -14.8125 20.007812 -16.125 19.40625 -17.28125 C 18.8125 -18.445312 18.019531 -19.375 17.03125 -20.0625 C 16.039062 -20.75 14.914062 -21.09375 13.65625 -21.09375 L 13.484375 -21.09375 C 12.253906 -21.0625 11.148438 -20.6875 10.171875 -19.96875 C 9.191406 -19.25 8.425781 -18.285156 7.875 -17.078125 C 7.332031 -15.867188 7.078125 -14.515625 7.109375 -13.015625 C 7.140625 -11.609375 7.4375 -10.335938 8 -9.203125 C 8.5625 -8.078125 9.332031 -7.1875 10.3125 -6.53125 C 11.289062 -5.875 12.375 -5.546875 13.5625 -5.546875 Z M 13.5625 -5.546875 "/></g></g></g><g fill="#1b1b1b" fill-opacity="1"><g transform="translate(138.732726, 184.615008)"><g><path d="M 22.421875 -1.140625 C 22.171875 -0.835938 21.785156 -0.671875 21.265625 -0.640625 C 20.773438 -0.640625 20.300781 -0.738281 19.84375 -0.9375 C 19.382812 -1.132812 18.929688 -1.332031 18.484375 -1.53125 C 18.046875 -1.726562 17.566406 -1.828125 17.046875 -1.828125 C 16.710938 -1.828125 16.378906 -1.804688 16.046875 -1.765625 C 15.710938 -1.722656 15.40625 -1.671875 15.125 -1.609375 L 14.90625 -1.5625 C 14.007812 -1.40625 13.140625 -1.203125 12.296875 -0.953125 C 11.460938 -0.710938 10.679688 -0.472656 9.953125 -0.234375 C 9.609375 -0.140625 9.257812 -0.0625 8.90625 0 C 8.5625 0.0625 8.207031 0.09375 7.84375 0.09375 C 5.613281 0.09375 3.734375 -0.789062 2.203125 -2.5625 C 0.460938 -4.550781 -0.222656 -7 0.140625 -9.90625 C 0.285156 -11.0625 0.6875 -12.097656 1.34375 -13.015625 C 2.007812 -13.929688 2.84375 -14.632812 3.84375 -15.125 C 4.363281 -15.375 4.914062 -15.550781 5.5 -15.65625 C 6.082031 -15.757812 6.679688 -15.859375 7.296875 -15.953125 C 7.441406 -15.953125 7.578125 -15.957031 7.703125 -15.96875 C 7.828125 -15.988281 7.945312 -16.015625 8.0625 -16.046875 L 14.078125 -16.875 C 14.867188 -16.988281 15.363281 -17.222656 15.5625 -17.578125 C 15.757812 -17.929688 15.875 -18.210938 15.90625 -18.421875 C 15.96875 -18.941406 15.804688 -19.414062 15.421875 -19.84375 C 15.046875 -20.28125 14.597656 -20.570312 14.078125 -20.71875 C 13.128906 -21.082031 12.148438 -21.265625 11.140625 -21.265625 L 11 -21.265625 C 10.050781 -21.234375 9.148438 -21.097656 8.296875 -20.859375 C 7.441406 -20.617188 6.617188 -20.328125 5.828125 -19.984375 C 5.578125 -19.859375 5.285156 -19.796875 4.953125 -19.796875 C 4.273438 -19.796875 3.609375 -20.019531 2.953125 -20.46875 C 2.296875 -20.914062 1.832031 -21.441406 1.5625 -22.046875 C 1.4375 -22.296875 1.378906 -22.503906 1.390625 -22.671875 C 1.410156 -22.835938 1.4375 -22.96875 1.46875 -23.0625 C 1.644531 -23.457031 2 -23.816406 2.53125 -24.140625 C 3.070312 -24.460938 3.640625 -24.738281 4.234375 -24.96875 C 4.835938 -25.195312 5.335938 -25.367188 5.734375 -25.484375 C 7.929688 -26.191406 10.144531 -26.546875 12.375 -26.546875 C 12.59375 -26.546875 12.804688 -26.546875 13.015625 -26.546875 C 13.234375 -26.546875 13.445312 -26.53125 13.65625 -26.5 C 14.726562 -26.4375 15.910156 -26.226562 17.203125 -25.875 C 18.503906 -25.53125 19.613281 -24.867188 20.53125 -23.890625 C 21.601562 -22.722656 22.25 -21.5625 22.46875 -20.40625 C 22.707031 -19.082031 22.785156 -17.710938 22.703125 -16.296875 C 22.628906 -14.878906 22.609375 -13.5 22.640625 -12.15625 C 22.640625 -10.769531 22.640625 -9.378906 22.640625 -7.984375 C 22.640625 -6.597656 22.65625 -5.234375 22.6875 -3.890625 C 22.6875 -3.429688 22.707031 -2.941406 22.75 -2.421875 C 22.800781 -1.910156 22.691406 -1.484375 22.421875 -1.140625 Z M 15.765625 -9.03125 C 16.015625 -9.519531 16.09375 -9.929688 16 -10.265625 C 15.90625 -10.597656 15.8125 -10.828125 15.71875 -10.953125 C 15.601562 -11.140625 15.414062 -11.316406 15.15625 -11.484375 C 14.894531 -11.648438 14.535156 -11.75 14.078125 -11.78125 L 13.703125 -11.828125 C 13.429688 -11.859375 13.148438 -11.875 12.859375 -11.875 C 12.566406 -11.875 12.253906 -11.875 11.921875 -11.875 C 11.398438 -11.875 10.769531 -11.816406 10.03125 -11.703125 C 9.300781 -11.597656 8.601562 -11.316406 7.9375 -10.859375 C 7.476562 -10.492188 7.1875 -10.113281 7.0625 -9.71875 C 6.9375 -9.382812 6.921875 -8.957031 7.015625 -8.4375 C 7.222656 -7.488281 7.632812 -6.753906 8.25 -6.234375 C 8.863281 -5.710938 9.597656 -5.453125 10.453125 -5.453125 C 11.523438 -5.453125 12.578125 -5.800781 13.609375 -6.5 C 14.648438 -7.207031 15.367188 -8.050781 15.765625 -9.03125 Z M 15.765625 -9.03125 "/></g></g></g><g fill="#1b1b1b" fill-opacity="1"><g transform="translate(161.601659, 184.615008)"><g><path d="M 26.5 -19.765625 C 26.5 -17.679688 26.515625 -15.582031 26.546875 -13.46875 C 26.578125 -11.363281 26.5625 -9.273438 26.5 -7.203125 C 26.46875 -6.035156 26.453125 -4.828125 26.453125 -3.578125 C 26.453125 -2.328125 26.359375 -1.09375 26.171875 0.125 C 25.992188 1.351562 25.613281 2.503906 25.03125 3.578125 C 24.269531 4.984375 23.257812 6.148438 22 7.078125 C 20.75 8.015625 19.367188 8.710938 17.859375 9.171875 C 16.347656 9.628906 14.8125 9.859375 13.25 9.859375 C 13.125 9.859375 13 9.859375 12.875 9.859375 C 12.757812 9.859375 12.640625 9.859375 12.515625 9.859375 C 11.503906 9.796875 10.5 9.707031 9.5 9.59375 C 8.507812 9.488281 7.53125 9.285156 6.5625 8.984375 C 6.15625 8.859375 5.675781 8.695312 5.125 8.5 C 4.582031 8.300781 4.066406 8.0625 3.578125 7.78125 C 3.085938 7.507812 2.742188 7.164062 2.546875 6.75 C 2.347656 6.34375 2.382812 5.847656 2.65625 5.265625 C 2.875 4.835938 3.085938 4.398438 3.296875 3.953125 C 3.515625 3.515625 3.726562 3.082031 3.9375 2.65625 C 4.1875 2.195312 4.507812 1.957031 4.90625 1.9375 C 5.300781 1.925781 5.742188 2.035156 6.234375 2.265625 C 6.722656 2.492188 7.195312 2.742188 7.65625 3.015625 C 8.113281 3.296875 8.492188 3.484375 8.796875 3.578125 C 9.441406 3.785156 10.109375 3.953125 10.796875 4.078125 C 11.484375 4.203125 12.164062 4.265625 12.84375 4.265625 C 14.519531 4.265625 16.015625 3.828125 17.328125 2.953125 C 18.640625 2.085938 19.585938 0.859375 20.171875 -0.734375 C 20.234375 -0.890625 20.28125 -1.035156 20.3125 -1.171875 C 20.34375 -1.304688 20.34375 -1.4375 20.3125 -1.5625 C 20.28125 -2.082031 20.078125 -2.382812 19.703125 -2.46875 C 19.335938 -2.5625 18.914062 -2.546875 18.4375 -2.421875 C 17.96875 -2.304688 17.507812 -2.148438 17.0625 -1.953125 C 16.625 -1.753906 16.285156 -1.625 16.046875 -1.5625 C 15.335938 -1.34375 14.617188 -1.164062 13.890625 -1.03125 C 13.160156 -0.894531 12.425781 -0.828125 11.6875 -0.828125 C 9.757812 -0.828125 8.050781 -1.316406 6.5625 -2.296875 C 5.332031 -3.085938 4.242188 -3.988281 3.296875 -5 C 2.347656 -6.007812 1.660156 -6.988281 1.234375 -7.9375 C 0.046875 -10.71875 -0.285156 -13.484375 0.234375 -16.234375 C 0.753906 -18.984375 2.082031 -21.378906 4.21875 -23.421875 C 6.351562 -25.503906 8.8125 -26.546875 11.59375 -26.546875 C 13.707031 -26.546875 15.800781 -25.960938 17.875 -24.796875 C 18.03125 -24.679688 18.226562 -24.625 18.46875 -24.625 C 18.84375 -24.625 19.148438 -24.773438 19.390625 -25.078125 C 19.546875 -25.265625 19.921875 -25.457031 20.515625 -25.65625 C 21.109375 -25.851562 21.8125 -26.023438 22.625 -26.171875 C 23.4375 -26.328125 24.207031 -26.40625 24.9375 -26.40625 C 25.394531 -26.40625 25.710938 -26.375 25.890625 -26.3125 C 26.078125 -26.25 26.234375 -26.003906 26.359375 -25.578125 C 26.515625 -25.085938 26.5625 -24.515625 26.5 -23.859375 C 26.4375 -23.203125 26.421875 -22.613281 26.453125 -22.09375 C 26.453125 -21.695312 26.453125 -21.304688 26.453125 -20.921875 C 26.453125 -20.546875 26.46875 -20.160156 26.5 -19.765625 Z M 18.390625 -8.703125 C 19.640625 -10.203125 20.265625 -11.960938 20.265625 -13.984375 C 20.265625 -15.328125 19.960938 -16.53125 19.359375 -17.59375 C 18.765625 -18.664062 17.972656 -19.507812 16.984375 -20.125 C 15.992188 -20.738281 14.867188 -21.046875 13.609375 -21.046875 C 12.753906 -21.015625 11.929688 -20.828125 11.140625 -20.484375 C 10.347656 -20.148438 9.644531 -19.664062 9.03125 -19.03125 C 7.59375 -17.5625 6.90625 -15.738281 6.96875 -13.5625 C 7 -12.3125 7.332031 -11.132812 7.96875 -10.03125 C 8.613281 -8.9375 9.429688 -8.050781 10.421875 -7.375 C 11.421875 -6.707031 12.484375 -6.375 13.609375 -6.375 C 13.609375 -6.375 13.613281 -6.375 13.625 -6.375 C 13.644531 -6.375 13.65625 -6.375 13.65625 -6.375 C 15.488281 -6.375 17.066406 -7.148438 18.390625 -8.703125 Z M 18.390625 -8.703125 "/></g></g></g><g fill="#1b1b1b" fill-opacity="1"><g transform="translate(188.274643, 184.615008)"><g><path d="M 23.421875 -0.234375 C 22.628906 -0.265625 21.828125 -0.269531 21.015625 -0.25 C 20.203125 -0.238281 19.382812 -0.234375 18.5625 -0.234375 C 18.382812 -0.234375 18.238281 -0.550781 18.125 -1.1875 C 18.019531 -1.832031 17.953125 -2.671875 17.921875 -3.703125 C 17.890625 -4.742188 17.875 -5.867188 17.875 -7.078125 C 17.875 -8.285156 17.890625 -9.453125 17.921875 -10.578125 C 17.953125 -11.710938 17.972656 -12.691406 17.984375 -13.515625 C 18.003906 -14.347656 18.015625 -14.882812 18.015625 -15.125 C 17.984375 -16.84375 17.710938 -18.144531 17.203125 -19.03125 C 16.703125 -19.914062 16.078125 -20.523438 15.328125 -20.859375 C 14.585938 -21.191406 13.847656 -21.359375 13.109375 -21.359375 L 13.015625 -21.359375 C 11.273438 -21.359375 9.863281 -20.769531 8.78125 -19.59375 C 7.695312 -18.414062 7.125 -16.878906 7.0625 -14.984375 C 7.03125 -13.765625 7.015625 -12.539062 7.015625 -11.3125 C 7.015625 -10.09375 7.015625 -8.875 7.015625 -7.65625 C 7.046875 -6.707031 7.128906 -5.660156 7.265625 -4.515625 C 7.398438 -3.367188 7.378906 -2.320312 7.203125 -1.375 C 7.078125 -0.675781 6.789062 -0.300781 6.34375 -0.25 C 5.90625 -0.207031 5.410156 -0.171875 4.859375 -0.140625 C 4.492188 -0.109375 4.007812 -0.0664062 3.40625 -0.015625 C 2.8125 0.0234375 2.234375 0 1.671875 -0.09375 C 1.109375 -0.1875 0.6875 -0.414062 0.40625 -0.78125 C 0.0703125 -1.269531 -0.046875 -1.859375 0.046875 -2.546875 C 0.140625 -3.234375 0.203125 -3.835938 0.234375 -4.359375 C 0.347656 -6.035156 0.4375 -7.742188 0.5 -9.484375 C 0.59375 -12.785156 0.503906 -16.070312 0.234375 -19.34375 C 0.171875 -19.988281 0.125 -20.738281 0.09375 -21.59375 C 0.0625 -22.445312 0.128906 -23.265625 0.296875 -24.046875 C 0.460938 -24.828125 0.796875 -25.4375 1.296875 -25.875 C 1.804688 -26.320312 2.566406 -26.453125 3.578125 -26.265625 C 4.398438 -26.117188 5.207031 -25.929688 6 -25.703125 C 6.800781 -25.472656 7.613281 -25.28125 8.4375 -25.125 C 8.5 -25.125 8.566406 -25.125 8.640625 -25.125 C 8.710938 -25.125 8.765625 -25.125 8.796875 -25.125 C 9.378906 -25.125 9.960938 -25.238281 10.546875 -25.46875 C 11.128906 -25.695312 11.722656 -25.929688 12.328125 -26.171875 C 12.941406 -26.421875 13.554688 -26.5625 14.171875 -26.59375 C 15.941406 -26.738281 17.617188 -26.429688 19.203125 -25.671875 C 20.578125 -25.023438 21.640625 -24.179688 22.390625 -23.140625 C 23.140625 -22.109375 23.679688 -20.960938 24.015625 -19.703125 C 24.359375 -18.453125 24.570312 -17.15625 24.65625 -15.8125 C 24.75 -14.46875 24.828125 -13.140625 24.890625 -11.828125 C 24.890625 -11.554688 24.921875 -10.988281 24.984375 -10.125 C 25.046875 -9.269531 25.082031 -8.285156 25.09375 -7.171875 C 25.113281 -6.054688 25.09375 -4.972656 25.03125 -3.921875 C 24.96875 -2.867188 24.820312 -1.988281 24.59375 -1.28125 C 24.363281 -0.582031 24.019531 -0.234375 23.5625 -0.234375 C 23.53125 -0.234375 23.503906 -0.234375 23.484375 -0.234375 C 23.472656 -0.234375 23.453125 -0.234375 23.421875 -0.234375 Z M 23.421875 -0.234375 "/></g></g></g><g fill="#1b1b1b" fill-opacity="1"><g transform="translate(213.48102, 184.615008)"><g><path d="M 1.734375 -28.875 C 1.066406 -29.300781 0.578125 -29.90625 0.265625 -30.6875 C -0.0351562 -31.46875 -0.046875 -32.316406 0.234375 -33.234375 C 0.753906 -35.035156 1.972656 -35.96875 3.890625 -36.03125 L 3.984375 -36.03125 C 4.929688 -36.03125 5.722656 -35.773438 6.359375 -35.265625 C 7.003906 -34.765625 7.4375 -34.070312 7.65625 -33.1875 C 7.925781 -32.09375 7.816406 -31.085938 7.328125 -30.171875 C 6.835938 -29.253906 6.015625 -28.65625 4.859375 -28.375 C 4.273438 -28.25 3.71875 -28.234375 3.1875 -28.328125 C 2.65625 -28.421875 2.171875 -28.601562 1.734375 -28.875 Z M 1.09375 -24.296875 C 1.519531 -24.566406 2.132812 -24.6875 2.9375 -24.65625 C 3.394531 -24.65625 3.894531 -24.671875 4.4375 -24.703125 C 4.988281 -24.734375 5.5 -24.679688 5.96875 -24.546875 C 6.445312 -24.410156 6.765625 -24.097656 6.921875 -23.609375 C 7.191406 -22.847656 7.28125 -21.921875 7.1875 -20.828125 C 7.101562 -19.742188 7.0625 -18.804688 7.0625 -18.015625 C 7.09375 -16.148438 7.109375 -14.300781 7.109375 -12.46875 C 7.109375 -10.632812 7.125 -8.785156 7.15625 -6.921875 C 7.15625 -6.617188 7.191406 -6.109375 7.265625 -5.390625 C 7.335938 -4.671875 7.378906 -3.894531 7.390625 -3.0625 C 7.410156 -2.238281 7.328125 -1.535156 7.140625 -0.953125 C 6.960938 -0.378906 6.597656 -0.078125 6.046875 -0.046875 C 5.347656 -0.015625 4.613281 0.00390625 3.84375 0.015625 C 3.082031 0.0351562 2.351562 0 1.65625 -0.09375 C 1.164062 -0.15625 0.828125 -0.421875 0.640625 -0.890625 C 0.453125 -1.367188 0.351562 -1.941406 0.34375 -2.609375 C 0.332031 -3.285156 0.351562 -3.925781 0.40625 -4.53125 C 0.46875 -5.144531 0.5 -5.617188 0.5 -5.953125 C 0.46875 -7.210938 0.441406 -8.472656 0.421875 -9.734375 C 0.410156 -11.003906 0.40625 -12.269531 0.40625 -13.53125 C 0.375 -14.59375 0.359375 -15.660156 0.359375 -16.734375 C 0.359375 -17.804688 0.347656 -18.859375 0.328125 -19.890625 C 0.328125 -20.773438 0.3125 -21.628906 0.28125 -22.453125 C 0.25 -23.285156 0.519531 -23.898438 1.09375 -24.296875 Z M 1.09375 -24.296875 "/></g></g></g><g fill="#1b1b1b" fill-opacity="1"><g transform="translate(221.408708, 184.615008)"><g><path d="M 25.71875 -11.640625 C 25.351562 -11.335938 24.8125 -11.128906 24.09375 -11.015625 C 23.375 -10.910156 22.609375 -10.859375 21.796875 -10.859375 C 20.984375 -10.859375 20.222656 -10.875 19.515625 -10.90625 C 18.816406 -10.9375 18.285156 -10.953125 17.921875 -10.953125 C 16.335938 -10.921875 14.765625 -10.894531 13.203125 -10.875 C 11.640625 -10.863281 10.066406 -10.859375 8.484375 -10.859375 C 7.992188 -10.859375 7.675781 -10.707031 7.53125 -10.40625 C 7.394531 -10.101562 7.378906 -9.757812 7.484375 -9.375 C 7.597656 -8.988281 7.75 -8.660156 7.9375 -8.390625 C 8.570312 -7.566406 9.367188 -6.898438 10.328125 -6.390625 C 11.296875 -5.890625 12.300781 -5.578125 13.34375 -5.453125 C 14.5 -5.328125 15.46875 -5.484375 16.25 -5.921875 C 17.03125 -6.367188 17.910156 -6.835938 18.890625 -7.328125 C 19.347656 -7.578125 19.660156 -7.734375 19.828125 -7.796875 C 19.992188 -7.859375 20.273438 -7.71875 20.671875 -7.375 C 21.097656 -7.039062 21.503906 -6.582031 21.890625 -6 C 22.273438 -5.425781 22.648438 -4.925781 23.015625 -4.5 C 23.410156 -3.976562 23.394531 -3.488281 22.96875 -3.03125 C 22.539062 -2.570312 21.882812 -2.148438 21 -1.765625 C 20.113281 -1.378906 19.148438 -1.046875 18.109375 -0.765625 C 17.066406 -0.492188 16.125 -0.28125 15.28125 -0.125 C 14.445312 0.0195312 13.875 0.09375 13.5625 0.09375 C 11.519531 0.09375 9.632812 -0.3125 7.90625 -1.125 C 6.175781 -1.9375 4.703125 -3.035156 3.484375 -4.421875 C 2.265625 -5.816406 1.347656 -7.382812 0.734375 -9.125 C 0.117188 -10.863281 -0.117188 -12.6875 0.015625 -14.59375 C 0.160156 -16.507812 0.75 -18.367188 1.78125 -20.171875 C 2.582031 -21.578125 3.644531 -22.769531 4.96875 -23.75 C 6.300781 -24.726562 7.769531 -25.453125 9.375 -25.921875 C 10.976562 -26.398438 12.617188 -26.613281 14.296875 -26.5625 C 15.984375 -26.519531 17.582031 -26.1875 19.09375 -25.5625 C 20.601562 -24.9375 21.925781 -23.992188 23.0625 -22.734375 C 23.582031 -22.160156 24.078125 -21.4375 24.546875 -20.5625 C 25.023438 -19.6875 25.429688 -18.742188 25.765625 -17.734375 C 26.097656 -16.734375 26.300781 -15.75 26.375 -14.78125 C 26.457031 -13.820312 26.359375 -12.945312 26.078125 -12.15625 C 26.023438 -11.96875 25.90625 -11.796875 25.71875 -11.640625 Z M 18.796875 -16.40625 C 18.890625 -16.625 18.921875 -16.851562 18.890625 -17.09375 C 18.859375 -17.46875 18.691406 -17.820312 18.390625 -18.15625 C 17.554688 -19.3125 16.484375 -20.164062 15.171875 -20.71875 C 13.859375 -21.269531 12.515625 -21.238281 11.140625 -20.625 C 10.523438 -20.351562 9.953125 -20.003906 9.421875 -19.578125 C 8.890625 -19.148438 8.394531 -18.691406 7.9375 -18.203125 C 7.8125 -18.078125 7.6875 -17.9375 7.5625 -17.78125 C 7.4375 -17.632812 7.347656 -17.46875 7.296875 -17.28125 C 7.171875 -16.914062 7.226562 -16.578125 7.46875 -16.265625 C 7.71875 -15.960938 8.023438 -15.8125 8.390625 -15.8125 L 17.734375 -15.8125 C 18.253906 -15.8125 18.609375 -16.007812 18.796875 -16.40625 Z M 18.796875 -16.40625 "/></g></g></g><g fill="#1b1b1b" fill-opacity="1"><g transform="translate(247.898391, 184.615008)"><g/></g></g><g fill="#1b1b1b" fill-opacity="1"><g transform="translate(266.321616, 184.615008)"><g><path d="M 23.109375 -1.140625 C 21.023438 -3.773438 18.96875 -6.421875 16.9375 -9.078125 C 14.90625 -11.734375 12.847656 -14.363281 10.765625 -16.96875 C 10.617188 -17.144531 10.347656 -17.414062 9.953125 -17.78125 C 9.554688 -18.15625 9.132812 -18.46875 8.6875 -18.71875 C 8.238281 -18.976562 7.851562 -19.078125 7.53125 -19.015625 C 7.21875 -18.960938 7.0625 -18.613281 7.0625 -17.96875 C 7.0625 -15.550781 7.101562 -13.148438 7.1875 -10.765625 C 7.28125 -8.390625 7.269531 -5.992188 7.15625 -3.578125 C 7.125 -3.148438 7.109375 -2.695312 7.109375 -2.21875 C 7.109375 -1.75 7.046875 -1.300781 6.921875 -0.875 C 6.828125 -0.476562 6.695312 -0.253906 6.53125 -0.203125 C 6.363281 -0.160156 6.050781 -0.140625 5.59375 -0.140625 C 4.769531 -0.171875 3.9375 -0.1875 3.09375 -0.1875 C 2.25 -0.1875 1.398438 -0.1875 0.546875 -0.1875 C 0.367188 -0.1875 0.238281 -0.53125 0.15625 -1.21875 C 0.0820312 -1.90625 0.046875 -2.757812 0.046875 -3.78125 C 0.046875 -4.800781 0.0507812 -5.847656 0.0625 -6.921875 C 0.0820312 -7.992188 0.109375 -8.929688 0.140625 -9.734375 C 0.171875 -10.546875 0.1875 -11.078125 0.1875 -11.328125 C 0.1875 -14.679688 0.175781 -18.046875 0.15625 -21.421875 C 0.144531 -24.804688 0.15625 -28.179688 0.1875 -31.546875 C 0.1875 -32.003906 0.210938 -32.4375 0.265625 -32.84375 C 0.328125 -33.257812 0.601562 -33.570312 1.09375 -33.78125 C 1.582031 -33.96875 2.125 -34.050781 2.71875 -34.03125 C 3.320312 -34.019531 3.867188 -33.96875 4.359375 -33.875 C 5.484375 -33.664062 6.488281 -33.207031 7.375 -32.5 C 8.257812 -31.800781 9.007812 -31.007812 9.625 -30.125 C 10.539062 -28.800781 11.476562 -27.488281 12.4375 -26.1875 C 13.40625 -24.894531 14.378906 -23.609375 15.359375 -22.328125 C 16.242188 -21.191406 17.117188 -19.988281 17.984375 -18.71875 C 18.859375 -17.457031 19.816406 -16.335938 20.859375 -15.359375 C 21.160156 -15.054688 21.5 -14.859375 21.875 -14.765625 C 22.351562 -14.640625 22.757812 -14.742188 23.09375 -15.078125 C 23.4375 -15.421875 23.671875 -15.804688 23.796875 -16.234375 C 23.890625 -16.535156 23.941406 -16.851562 23.953125 -17.1875 C 23.960938 -17.53125 23.96875 -17.851562 23.96875 -18.15625 C 23.914062 -20.476562 23.863281 -22.785156 23.8125 -25.078125 C 23.769531 -27.367188 23.851562 -29.660156 24.0625 -31.953125 C 24.15625 -32.710938 24.421875 -33.238281 24.859375 -33.53125 C 25.304688 -33.820312 25.847656 -33.972656 26.484375 -33.984375 C 27.128906 -34.003906 27.78125 -33.957031 28.4375 -33.84375 C 29.101562 -33.738281 29.695312 -33.675781 30.21875 -33.65625 C 30.425781 -33.65625 30.625 -33.609375 30.8125 -33.515625 C 31.050781 -33.359375 31.1875 -33.085938 31.21875 -32.703125 C 31.25 -32.328125 31.238281 -31.929688 31.1875 -31.515625 C 31.144531 -31.109375 31.109375 -30.78125 31.078125 -30.53125 C 31.078125 -29.914062 31.078125 -29.296875 31.078125 -28.671875 C 31.078125 -28.046875 31.078125 -27.425781 31.078125 -26.8125 C 31.046875 -25.59375 31.03125 -24.367188 31.03125 -23.140625 C 31.03125 -21.921875 31.03125 -20.6875 31.03125 -19.4375 C 31.03125 -17.050781 31.03125 -14.648438 31.03125 -12.234375 C 31.03125 -9.828125 31.03125 -7.445312 31.03125 -5.09375 C 31.03125 -4.414062 31.050781 -3.703125 31.09375 -2.953125 C 31.144531 -2.203125 31.125 -1.492188 31.03125 -0.828125 C 30.945312 -0.304688 30.757812 -0.0507812 30.46875 -0.0625 C 30.175781 -0.0820312 29.816406 -0.09375 29.390625 -0.09375 C 28.804688 -0.09375 28.21875 -0.09375 27.625 -0.09375 C 27.03125 -0.09375 26.425781 -0.09375 25.8125 -0.09375 C 25.195312 -0.09375 24.691406 -0.144531 24.296875 -0.25 C 23.898438 -0.351562 23.503906 -0.648438 23.109375 -1.140625 Z M 23.109375 -1.140625 "/></g></g></g><g fill="#1b1b1b" fill-opacity="1"><g transform="translate(297.669476, 184.615008)"><g><path d="M 26.125 -28.28125 C 25.820312 -27.976562 25.394531 -27.863281 24.84375 -27.9375 C 24.289062 -28.019531 23.800781 -28.0625 23.375 -28.0625 C 22.488281 -28.0625 21.601562 -28.0625 20.71875 -28.0625 C 19.832031 -28.0625 18.945312 -28.0625 18.0625 -28.0625 C 17.632812 -28.0625 17.335938 -27.914062 17.171875 -27.625 C 17.003906 -27.332031 16.910156 -26.988281 16.890625 -26.59375 C 16.878906 -26.195312 16.875 -25.84375 16.875 -25.53125 C 16.875 -21.5 16.875 -17.472656 16.875 -13.453125 C 16.875 -9.429688 16.890625 -5.40625 16.921875 -1.375 C 16.921875 -0.882812 16.789062 -0.5625 16.53125 -0.40625 C 16.269531 -0.257812 15.910156 -0.203125 15.453125 -0.234375 C 14.960938 -0.265625 14.460938 -0.285156 13.953125 -0.296875 C 13.453125 -0.316406 12.941406 -0.3125 12.421875 -0.28125 C 12.085938 -0.28125 11.691406 -0.207031 11.234375 -0.0625 C 10.773438 0.0703125 10.390625 0 10.078125 -0.28125 C 9.835938 -0.519531 9.71875 -0.914062 9.71875 -1.46875 C 9.71875 -2.019531 9.71875 -2.445312 9.71875 -2.75 C 9.71875 -5.007812 9.722656 -7.269531 9.734375 -9.53125 C 9.753906 -11.789062 9.765625 -14.039062 9.765625 -16.28125 C 9.765625 -17.4375 9.765625 -18.585938 9.765625 -19.734375 C 9.765625 -20.878906 9.75 -22.019531 9.71875 -23.15625 C 9.71875 -23.457031 9.75 -23.867188 9.8125 -24.390625 C 9.875 -24.910156 9.894531 -25.4375 9.875 -25.96875 C 9.863281 -26.5 9.765625 -26.957031 9.578125 -27.34375 C 9.398438 -27.726562 9.066406 -27.921875 8.578125 -27.921875 C 7.347656 -27.921875 6.128906 -27.910156 4.921875 -27.890625 C 3.722656 -27.878906 2.507812 -27.859375 1.28125 -27.828125 C 1.125 -27.828125 0.953125 -27.832031 0.765625 -27.84375 C 0.585938 -27.863281 0.441406 -27.9375 0.328125 -28.0625 C 0.203125 -28.175781 0.125 -28.316406 0.09375 -28.484375 C 0.0625 -28.660156 0.046875 -28.820312 0.046875 -28.96875 C 0.015625 -29.675781 0 -30.375 0 -31.0625 C 0 -31.75 0 -32.425781 0 -33.09375 C 0 -33.21875 0.00390625 -33.34375 0.015625 -33.46875 C 0.0351562 -33.59375 0.09375 -33.695312 0.1875 -33.78125 C 0.300781 -33.90625 0.4375 -33.984375 0.59375 -34.015625 C 0.75 -34.046875 0.898438 -34.0625 1.046875 -34.0625 C 5.054688 -33.96875 9.046875 -33.921875 13.015625 -33.921875 C 16.992188 -33.921875 20.96875 -33.953125 24.9375 -34.015625 C 25.15625 -34.015625 25.367188 -34.003906 25.578125 -33.984375 C 25.796875 -33.972656 25.976562 -33.890625 26.125 -33.734375 C 26.28125 -33.585938 26.378906 -33.398438 26.421875 -33.171875 C 26.472656 -32.941406 26.515625 -32.71875 26.546875 -32.5 C 26.546875 -32.132812 26.550781 -31.769531 26.5625 -31.40625 C 26.582031 -31.039062 26.59375 -30.671875 26.59375 -30.296875 C 26.625 -29.992188 26.628906 -29.695312 26.609375 -29.40625 C 26.597656 -29.113281 26.515625 -28.847656 26.359375 -28.609375 C 26.328125 -28.515625 26.25 -28.40625 26.125 -28.28125 Z M 26.125 -28.28125 "/></g></g></g><g fill="#1b1b1b" fill-opacity="1"><g transform="translate(324.38827, 184.615008)"><g><path d="M 13.9375 -13.796875 C 12.894531 -13.859375 11.847656 -13.859375 10.796875 -13.796875 C 9.742188 -13.734375 8.832031 -13.351562 8.0625 -12.65625 C 7.457031 -12.101562 7.082031 -11.375 6.9375 -10.46875 C 6.800781 -9.570312 6.78125 -8.640625 6.875 -7.671875 C 6.96875 -6.710938 7.03125 -5.867188 7.0625 -5.140625 C 7.09375 -4.765625 7.140625 -4.300781 7.203125 -3.75 C 7.265625 -3.207031 7.300781 -2.660156 7.3125 -2.109375 C 7.320312 -1.554688 7.238281 -1.113281 7.0625 -0.78125 C 6.8125 -0.320312 6.390625 -0.0664062 5.796875 -0.015625 C 5.203125 0.0234375 4.578125 -0.015625 3.921875 -0.140625 C 3.265625 -0.265625 2.722656 -0.328125 2.296875 -0.328125 C 1.492188 -0.328125 0.914062 -0.347656 0.5625 -0.390625 C 0.21875 -0.429688 0.046875 -0.878906 0.046875 -1.734375 C 0.046875 -3.359375 0.046875 -4.972656 0.046875 -6.578125 C 0.046875 -8.179688 0.046875 -9.78125 0.046875 -11.375 C 0.078125 -14.726562 0.09375 -18.109375 0.09375 -21.515625 C 0.09375 -24.929688 0.0625 -28.316406 0 -31.671875 C 0 -32.710938 0.132812 -33.375 0.40625 -33.65625 C 0.65625 -33.894531 1.191406 -34.015625 2.015625 -34.015625 C 2.078125 -34.015625 2.140625 -34.015625 2.203125 -34.015625 C 2.265625 -34.015625 2.3125 -34.015625 2.34375 -34.015625 C 2.863281 -33.984375 3.320312 -33.96875 3.71875 -33.96875 C 4.113281 -33.96875 4.476562 -33.96875 4.8125 -33.96875 C 5.144531 -33.96875 5.488281 -33.972656 5.84375 -33.984375 C 6.195312 -34.003906 6.503906 -33.953125 6.765625 -33.828125 C 7.023438 -33.710938 7.15625 -33.425781 7.15625 -32.96875 C 7.15625 -31.613281 7.144531 -30.253906 7.125 -28.890625 C 7.113281 -27.535156 7.109375 -26.171875 7.109375 -24.796875 C 7.109375 -24.523438 7.078125 -24.082031 7.015625 -23.46875 C 6.953125 -22.863281 6.925781 -22.226562 6.9375 -21.5625 C 6.957031 -20.90625 7.054688 -20.347656 7.234375 -19.890625 C 7.421875 -19.429688 7.757812 -19.203125 8.25 -19.203125 C 8.738281 -19.203125 9.210938 -19.191406 9.671875 -19.171875 C 10.128906 -19.160156 10.585938 -19.15625 11.046875 -19.15625 C 11.472656 -19.15625 11.898438 -19.15625 12.328125 -19.15625 C 12.753906 -19.15625 13.179688 -19.15625 13.609375 -19.15625 C 14.160156 -19.15625 14.894531 -19.117188 15.8125 -19.046875 C 16.726562 -18.972656 17.617188 -18.953125 18.484375 -18.984375 C 19.359375 -19.015625 20.03125 -19.210938 20.5 -19.578125 C 20.925781 -19.910156 21.179688 -20.335938 21.265625 -20.859375 C 21.359375 -21.378906 21.390625 -21.921875 21.359375 -22.484375 C 21.328125 -23.046875 21.3125 -23.570312 21.3125 -24.0625 C 21.375 -25.40625 21.390625 -26.757812 21.359375 -28.125 C 21.328125 -29.488281 21.3125 -30.84375 21.3125 -32.1875 C 21.28125 -32.726562 21.34375 -33.160156 21.5 -33.484375 C 21.65625 -33.804688 22.019531 -33.96875 22.59375 -33.96875 C 23.207031 -33.96875 23.8125 -33.96875 24.40625 -33.96875 C 25.007812 -33.96875 25.597656 -33.96875 26.171875 -33.96875 C 26.878906 -33.9375 27.382812 -33.921875 27.6875 -33.921875 C 27.988281 -33.921875 28.15625 -33.539062 28.1875 -32.78125 C 28.28125 -31.644531 28.296875 -30.488281 28.234375 -29.3125 C 28.171875 -28.132812 28.140625 -26.96875 28.140625 -25.8125 C 28.140625 -24.40625 28.140625 -23 28.140625 -21.59375 C 28.140625 -20.1875 28.140625 -18.765625 28.140625 -17.328125 C 28.140625 -15.648438 28.1875 -13.976562 28.28125 -12.3125 C 28.375 -10.644531 28.4375 -8.972656 28.46875 -7.296875 C 28.46875 -7.015625 28.484375 -6.515625 28.515625 -5.796875 C 28.546875 -5.078125 28.546875 -4.296875 28.515625 -3.453125 C 28.484375 -2.617188 28.367188 -1.894531 28.171875 -1.28125 C 27.972656 -0.664062 27.644531 -0.347656 27.1875 -0.328125 C 26.332031 -0.296875 25.472656 -0.285156 24.609375 -0.296875 C 23.753906 -0.316406 22.898438 -0.328125 22.046875 -0.328125 C 21.554688 -0.328125 21.273438 -0.582031 21.203125 -1.09375 C 21.128906 -1.613281 21.144531 -2.1875 21.25 -2.8125 C 21.351562 -3.445312 21.40625 -3.914062 21.40625 -4.21875 C 21.46875 -5.289062 21.5 -6.375 21.5 -7.46875 C 21.5 -8.570312 21.421875 -9.671875 21.265625 -10.765625 C 21.148438 -11.597656 20.835938 -12.234375 20.328125 -12.671875 C 19.828125 -13.117188 19.21875 -13.414062 18.5 -13.5625 C 17.78125 -13.71875 17.054688 -13.765625 16.328125 -13.703125 C 15.953125 -13.703125 15.566406 -13.707031 15.171875 -13.71875 C 14.773438 -13.738281 14.363281 -13.765625 13.9375 -13.796875 Z M 13.9375 -13.796875 "/></g></g></g><g clip-path="url(#b89ae3ba29)"><g clip-path="url(#492504d399)"><g transform="matrix(1, 0, 0, 1, 251, 179)"><g clip-path="url(#30385fc262)"><g clip-path="url(#b290e544b6)"><g clip-path="url(#4ef294c6ec)"><path fill="#1b1b1b" d="M 0.0546875 0.101562 L 8.453125 0.101562 L 8.453125 8.5 L 0.0546875 8.5 Z M 0.0546875 0.101562 " fill-opacity="1" fill-rule="nonzero"/></g></g></g></g></g></g></svg>