<svg xmlns="http://www.w3.org/2000/svg" xmlns:xlink="http://www.w3.org/1999/xlink" width="500" zoomAndPan="magnify" viewBox="0 0 375 374.999991" height="500" preserveAspectRatio="xMidYMid meet" version="1.0"><defs><g/><clipPath id="148b05ddd4"><rect x="0" width="335" y="0" height="271"/></clipPath><clipPath id="ba63905f3c"><rect x="0" width="114" y="0" height="51"/></clipPath><clipPath id="e9057d3851"><rect x="0" width="115" y="0" height="52"/></clipPath></defs><rect x="-37.5" width="450" fill="#ffffff" y="-37.499999" height="449.999989" fill-opacity="1"/><rect x="-37.5" width="450" fill="#ffffff" y="-37.499999" height="449.999989" fill-opacity="1"/><g transform="matrix(1, 0, 0, 1, 19, 45)"><g clip-path="url(#148b05ddd4)"><g fill="#1b1b1b" fill-opacity="1"><g transform="translate(2.417114, 89.586688)"><g><path d="M 56.375 -57.828125 C 57.789062 -56.265625 58.238281 -54.582031 57.71875 -52.78125 C 57.5 -51.96875 57.109375 -51.203125 56.546875 -50.484375 C 55.984375 -49.773438 55.40625 -49.085938 54.8125 -48.421875 C 54.4375 -48.046875 54.0625 -47.671875 53.6875 -47.296875 C 53.3125 -46.921875 52.9375 -46.546875 52.5625 -46.171875 C 51.96875 -45.503906 51.164062 -45.28125 50.15625 -45.5 C 49.144531 -45.726562 48.132812 -46.101562 47.125 -46.625 C 46.113281 -47.144531 45.238281 -47.519531 44.5 -47.75 C 42.851562 -48.34375 41.222656 -48.863281 39.609375 -49.3125 C 38.003906 -49.757812 36.34375 -50.097656 34.625 -50.328125 C 34.257812 -50.398438 33.90625 -50.4375 33.5625 -50.4375 C 33.226562 -50.4375 32.875 -50.4375 32.5 -50.4375 C 28.84375 -50.4375 25.570312 -49.332031 22.6875 -47.125 C 19.8125 -44.925781 17.851562 -41.992188 16.8125 -38.328125 C 15.6875 -34.367188 15.796875 -30.484375 17.140625 -26.671875 C 18.492188 -22.859375 20.8125 -19.796875 24.09375 -17.484375 C 26.632812 -15.765625 29.921875 -14.90625 33.953125 -14.90625 C 39.109375 -14.90625 43.257812 -16.140625 46.40625 -18.609375 C 47.894531 -19.796875 49.144531 -20.554688 50.15625 -20.890625 C 51.164062 -21.234375 52.378906 -20.546875 53.796875 -18.828125 C 54.546875 -18.078125 55.273438 -17.269531 55.984375 -16.40625 C 56.691406 -15.550781 57.382812 -14.675781 58.0625 -13.78125 C 58.957031 -12.59375 59.101562 -11.4375 58.5 -10.3125 C 57.90625 -9.1875 56.894531 -8.140625 55.46875 -7.171875 C 54.050781 -6.203125 52.578125 -5.363281 51.046875 -4.65625 C 49.515625 -3.945312 48.335938 -3.40625 47.515625 -3.03125 C 42.960938 -0.863281 38.179688 0.21875 33.171875 0.21875 C 28.242188 0.21875 23.535156 -0.84375 19.046875 -2.96875 C 14.566406 -5.101562 10.570312 -8.113281 7.0625 -12 C 4.070312 -15.507812 2.085938 -19.128906 1.109375 -22.859375 C 0.140625 -26.597656 -0.175781 -30.257812 0.15625 -33.84375 C 0.5 -37.4375 1.117188 -40.6875 2.015625 -43.59375 C 3.960938 -49.570312 7.117188 -54.351562 11.484375 -57.9375 C 15.859375 -61.53125 21.296875 -63.738281 27.796875 -64.5625 C 29.960938 -64.78125 31.976562 -64.890625 33.84375 -64.890625 C 34.894531 -64.890625 36.425781 -64.757812 38.4375 -64.5 C 40.457031 -64.238281 42.625 -63.828125 44.9375 -63.265625 C 47.257812 -62.703125 49.460938 -61.972656 51.546875 -61.078125 C 53.640625 -60.179688 55.25 -59.097656 56.375 -57.828125 Z M 56.375 -57.828125 "/></g></g></g><g fill="#1b1b1b" fill-opacity="1"><g transform="translate(61.47848, 89.586688)"><g><path d="M 4.265625 -70.609375 C 2.617188 -71.648438 1.421875 -73.125 0.671875 -75.03125 C -0.078125 -76.9375 -0.113281 -79.007812 0.5625 -81.25 C 1.832031 -85.664062 4.820312 -87.945312 9.53125 -88.09375 L 9.75 -88.09375 C 12.0625 -88.09375 14.003906 -87.472656 15.578125 -86.234375 C 17.148438 -85.003906 18.195312 -83.304688 18.71875 -81.140625 C 19.382812 -78.453125 19.117188 -75.988281 17.921875 -73.75 C 16.734375 -71.507812 14.71875 -70.050781 11.875 -69.375 C 10.457031 -69.070312 9.09375 -69.03125 7.78125 -69.25 C 6.476562 -69.476562 5.304688 -69.929688 4.265625 -70.609375 Z M 2.6875 -59.40625 C 3.738281 -60.070312 5.234375 -60.367188 7.171875 -60.296875 C 8.296875 -60.296875 9.53125 -60.332031 10.875 -60.40625 C 12.21875 -60.476562 13.46875 -60.347656 14.625 -60.015625 C 15.78125 -59.679688 16.546875 -58.914062 16.921875 -57.71875 C 17.597656 -55.851562 17.820312 -53.59375 17.59375 -50.9375 C 17.375 -48.28125 17.265625 -45.984375 17.265625 -44.046875 C 17.335938 -39.484375 17.375 -34.960938 17.375 -30.484375 C 17.375 -26.003906 17.410156 -21.484375 17.484375 -16.921875 C 17.484375 -16.171875 17.578125 -14.914062 17.765625 -13.15625 C 17.953125 -11.40625 18.0625 -9.519531 18.09375 -7.5 C 18.132812 -5.488281 17.929688 -3.769531 17.484375 -2.34375 C 17.035156 -0.925781 16.140625 -0.179688 14.796875 -0.109375 C 13.078125 -0.0351562 11.28125 0.015625 9.40625 0.046875 C 7.539062 0.0859375 5.75 0 4.03125 -0.21875 C 2.832031 -0.375 2.007812 -1.03125 1.5625 -2.1875 C 1.113281 -3.34375 0.867188 -4.742188 0.828125 -6.390625 C 0.796875 -8.035156 0.851562 -9.601562 1 -11.09375 C 1.15625 -12.59375 1.234375 -13.75 1.234375 -14.5625 C 1.160156 -17.632812 1.101562 -20.71875 1.0625 -23.8125 C 1.03125 -26.914062 1.015625 -30 1.015625 -33.0625 C 0.929688 -35.675781 0.890625 -38.289062 0.890625 -40.90625 C 0.890625 -43.519531 0.851562 -46.097656 0.78125 -48.640625 C 0.78125 -50.804688 0.742188 -52.894531 0.671875 -54.90625 C 0.597656 -56.925781 1.269531 -58.425781 2.6875 -59.40625 Z M 2.6875 -59.40625 "/></g></g></g><g fill="#1b1b1b" fill-opacity="1"><g transform="translate(80.86611, 89.586688)"><g><path d="M 62.875 -28.46875 C 61.976562 -27.71875 60.648438 -27.210938 58.890625 -26.953125 C 57.140625 -26.691406 55.273438 -26.5625 53.296875 -26.5625 C 51.316406 -26.5625 49.46875 -26.597656 47.75 -26.671875 C 46.03125 -26.742188 44.722656 -26.78125 43.828125 -26.78125 C 39.941406 -26.707031 36.09375 -26.648438 32.28125 -26.609375 C 28.46875 -26.578125 24.617188 -26.5625 20.734375 -26.5625 C 19.535156 -26.5625 18.769531 -26.1875 18.4375 -25.4375 C 18.101562 -24.695312 18.066406 -23.859375 18.328125 -22.921875 C 18.585938 -21.984375 18.941406 -21.179688 19.390625 -20.515625 C 20.960938 -18.492188 22.921875 -16.863281 25.265625 -15.625 C 27.617188 -14.394531 30.066406 -13.632812 32.609375 -13.34375 C 35.453125 -13.039062 37.828125 -13.429688 39.734375 -14.515625 C 41.640625 -15.597656 43.785156 -16.738281 46.171875 -17.9375 C 47.296875 -18.53125 48.0625 -18.898438 48.46875 -19.046875 C 48.882812 -19.203125 49.578125 -18.867188 50.546875 -18.046875 C 51.585938 -17.222656 52.578125 -16.097656 53.515625 -14.671875 C 54.453125 -13.253906 55.367188 -12.023438 56.265625 -10.984375 C 57.234375 -9.710938 57.191406 -8.515625 56.140625 -7.390625 C 55.097656 -6.273438 53.492188 -5.25 51.328125 -4.3125 C 49.160156 -3.375 46.804688 -2.566406 44.265625 -1.890625 C 41.722656 -1.222656 39.425781 -0.703125 37.375 -0.328125 C 35.320312 0.0351562 33.921875 0.21875 33.171875 0.21875 C 28.171875 0.21875 23.554688 -0.769531 19.328125 -2.75 C 15.109375 -4.726562 11.503906 -7.414062 8.515625 -10.8125 C 5.523438 -14.21875 3.28125 -18.046875 1.78125 -22.296875 C 0.289062 -26.554688 -0.285156 -31.019531 0.046875 -35.6875 C 0.390625 -40.363281 1.832031 -44.90625 4.375 -49.3125 C 6.3125 -52.75 8.90625 -55.660156 12.15625 -58.046875 C 15.40625 -60.441406 18.988281 -62.21875 22.90625 -63.375 C 26.832031 -64.539062 30.847656 -65.066406 34.953125 -64.953125 C 39.066406 -64.835938 42.972656 -64.015625 46.671875 -62.484375 C 50.378906 -60.953125 53.613281 -58.65625 56.375 -55.59375 C 57.644531 -54.175781 58.859375 -52.398438 60.015625 -50.265625 C 61.171875 -48.140625 62.160156 -45.84375 62.984375 -43.375 C 63.804688 -40.90625 64.3125 -38.492188 64.5 -36.140625 C 64.6875 -33.785156 64.441406 -31.640625 63.765625 -29.703125 C 63.617188 -29.253906 63.320312 -28.84375 62.875 -28.46875 Z M 45.953125 -40.125 C 46.171875 -40.644531 46.242188 -41.207031 46.171875 -41.8125 C 46.097656 -42.707031 45.6875 -43.566406 44.9375 -44.390625 C 42.925781 -47.222656 40.3125 -49.3125 37.09375 -50.65625 C 33.882812 -52 30.597656 -51.925781 27.234375 -50.4375 C 25.742188 -49.757812 24.34375 -48.894531 23.03125 -47.84375 C 21.726562 -46.800781 20.515625 -45.6875 19.390625 -44.5 C 19.085938 -44.195312 18.785156 -43.859375 18.484375 -43.484375 C 18.191406 -43.109375 17.972656 -42.695312 17.828125 -42.25 C 17.523438 -41.351562 17.671875 -40.53125 18.265625 -39.78125 C 18.867188 -39.039062 19.617188 -38.671875 20.515625 -38.671875 L 43.375 -38.671875 C 44.644531 -38.671875 45.503906 -39.15625 45.953125 -40.125 Z M 45.953125 -40.125 "/></g></g></g><g fill="#1b1b1b" fill-opacity="1"><g transform="translate(4.965467, 231.636838)"><g><path d="M 87.125 -4.328125 C 79.28125 -14.234375 71.523438 -24.195312 63.859375 -34.21875 C 56.203125 -44.25 48.457031 -54.160156 40.625 -63.953125 C 40.039062 -64.648438 39 -65.6875 37.5 -67.0625 C 36.007812 -68.445312 34.425781 -69.628906 32.75 -70.609375 C 31.082031 -71.585938 29.644531 -71.960938 28.4375 -71.734375 C 27.226562 -71.503906 26.625 -70.179688 26.625 -67.765625 C 26.625 -58.660156 26.796875 -49.613281 27.140625 -40.625 C 27.484375 -31.632812 27.425781 -22.585938 26.96875 -13.484375 C 26.851562 -11.867188 26.796875 -10.164062 26.796875 -8.375 C 26.796875 -6.59375 26.566406 -4.894531 26.109375 -3.28125 C 25.753906 -1.78125 25.257812 -0.941406 24.625 -0.765625 C 24 -0.597656 22.820312 -0.515625 21.09375 -0.515625 C 17.976562 -0.628906 14.835938 -0.6875 11.671875 -0.6875 C 8.503906 -0.6875 5.304688 -0.6875 2.078125 -0.6875 C 1.378906 -0.6875 0.882812 -1.984375 0.59375 -4.578125 C 0.3125 -7.171875 0.171875 -10.394531 0.171875 -14.25 C 0.171875 -18.113281 0.195312 -22.0625 0.25 -26.09375 C 0.3125 -30.132812 0.398438 -33.679688 0.515625 -36.734375 C 0.628906 -39.785156 0.6875 -41.773438 0.6875 -42.703125 C 0.6875 -55.367188 0.65625 -68.066406 0.59375 -80.796875 C 0.539062 -93.535156 0.570312 -106.242188 0.6875 -118.921875 C 0.6875 -120.648438 0.800781 -122.289062 1.03125 -123.84375 C 1.269531 -125.40625 2.3125 -126.585938 4.15625 -127.390625 C 6 -128.085938 8.039062 -128.40625 10.28125 -128.34375 C 12.53125 -128.289062 14.578125 -128.09375 16.421875 -127.75 C 20.679688 -126.9375 24.484375 -125.203125 27.828125 -122.546875 C 31.171875 -119.898438 33.992188 -116.90625 36.296875 -113.5625 C 39.753906 -108.613281 43.296875 -103.6875 46.921875 -98.78125 C 50.554688 -93.882812 54.21875 -89.019531 57.90625 -84.1875 C 61.25 -79.914062 64.5625 -75.390625 67.84375 -70.609375 C 71.132812 -65.828125 74.738281 -61.59375 78.65625 -57.90625 C 79.800781 -56.75 81.066406 -56 82.453125 -55.65625 C 84.296875 -55.195312 85.847656 -55.597656 87.109375 -56.859375 C 88.378906 -58.128906 89.25 -59.570312 89.71875 -61.1875 C 90.0625 -62.34375 90.257812 -63.550781 90.3125 -64.8125 C 90.375 -66.082031 90.40625 -67.296875 90.40625 -68.453125 C 90.175781 -77.210938 89.972656 -85.910156 89.796875 -94.546875 C 89.628906 -103.191406 89.945312 -111.835938 90.75 -120.484375 C 91.09375 -123.359375 92.097656 -125.34375 93.765625 -126.4375 C 95.441406 -127.539062 97.488281 -128.117188 99.90625 -128.171875 C 102.332031 -128.234375 104.78125 -128.0625 107.25 -127.65625 C 109.726562 -127.25 111.953125 -126.988281 113.921875 -126.875 C 114.722656 -126.875 115.46875 -126.703125 116.15625 -126.359375 C 117.082031 -125.785156 117.601562 -124.773438 117.71875 -123.328125 C 117.832031 -121.890625 117.800781 -120.390625 117.625 -118.828125 C 117.457031 -117.273438 117.316406 -116.039062 117.203125 -115.125 C 117.203125 -112.820312 117.203125 -110.488281 117.203125 -108.125 C 117.203125 -105.757812 117.203125 -103.425781 117.203125 -101.125 C 117.085938 -96.507812 117.03125 -91.894531 117.03125 -87.28125 C 117.03125 -82.675781 117.03125 -78.015625 117.03125 -73.296875 C 117.03125 -64.304688 117.03125 -55.257812 117.03125 -46.15625 C 117.03125 -37.050781 117.03125 -28.0625 117.03125 -19.1875 C 117.03125 -16.65625 117.113281 -13.976562 117.28125 -11.15625 C 117.457031 -8.332031 117.375 -5.648438 117.03125 -3.109375 C 116.675781 -1.148438 115.953125 -0.195312 114.859375 -0.25 C 113.765625 -0.3125 112.410156 -0.34375 110.796875 -0.34375 C 108.609375 -0.34375 106.390625 -0.34375 104.140625 -0.34375 C 101.898438 -0.34375 99.625 -0.34375 97.3125 -0.34375 C 95.007812 -0.34375 93.109375 -0.546875 91.609375 -0.953125 C 90.117188 -1.359375 88.625 -2.484375 87.125 -4.328125 Z M 87.125 -4.328125 "/></g></g></g><g fill="#1b1b1b" fill-opacity="1"><g transform="translate(123.191998, 231.636838)"><g><path d="M 98.53125 -106.65625 C 97.375 -105.5 95.757812 -105.066406 93.6875 -105.359375 C 91.613281 -105.648438 89.769531 -105.796875 88.15625 -105.796875 C 84.8125 -105.796875 81.46875 -105.796875 78.125 -105.796875 C 74.789062 -105.796875 71.453125 -105.796875 68.109375 -105.796875 C 66.492188 -105.796875 65.367188 -105.242188 64.734375 -104.140625 C 64.097656 -103.046875 63.75 -101.75 63.6875 -100.25 C 63.632812 -98.757812 63.609375 -97.4375 63.609375 -96.28125 C 63.609375 -81.070312 63.609375 -65.890625 63.609375 -50.734375 C 63.609375 -35.578125 63.664062 -20.394531 63.78125 -5.1875 C 63.78125 -3.34375 63.289062 -2.128906 62.3125 -1.546875 C 61.332031 -0.972656 59.976562 -0.742188 58.25 -0.859375 C 56.40625 -0.972656 54.53125 -1.054688 52.625 -1.109375 C 50.726562 -1.171875 48.800781 -1.144531 46.84375 -1.03125 C 45.570312 -1.03125 44.070312 -0.769531 42.34375 -0.25 C 40.613281 0.257812 39.175781 0 38.03125 -1.03125 C 37.101562 -1.957031 36.640625 -3.457031 36.640625 -5.53125 C 36.640625 -7.601562 36.640625 -9.21875 36.640625 -10.375 C 36.640625 -18.894531 36.664062 -27.421875 36.71875 -35.953125 C 36.78125 -44.484375 36.8125 -52.953125 36.8125 -61.359375 C 36.8125 -65.742188 36.8125 -70.09375 36.8125 -74.40625 C 36.8125 -78.726562 36.753906 -83.023438 36.640625 -87.296875 C 36.640625 -88.441406 36.753906 -89.992188 36.984375 -91.953125 C 37.222656 -93.921875 37.3125 -95.910156 37.25 -97.921875 C 37.195312 -99.941406 36.820312 -101.671875 36.125 -103.109375 C 35.4375 -104.546875 34.171875 -105.265625 32.328125 -105.265625 C 27.710938 -105.265625 23.128906 -105.234375 18.578125 -105.171875 C 14.023438 -105.117188 9.445312 -105.035156 4.84375 -104.921875 C 4.257812 -104.921875 3.625 -104.945312 2.9375 -105 C 2.25 -105.0625 1.671875 -105.328125 1.203125 -105.796875 C 0.742188 -106.253906 0.457031 -106.800781 0.34375 -107.4375 C 0.226562 -108.070312 0.171875 -108.675781 0.171875 -109.25 C 0.0546875 -111.894531 0 -114.515625 0 -117.109375 C 0 -119.703125 0 -122.265625 0 -124.796875 C 0 -125.265625 0.0234375 -125.726562 0.078125 -126.1875 C 0.140625 -126.644531 0.34375 -127.046875 0.6875 -127.390625 C 1.15625 -127.859375 1.675781 -128.148438 2.25 -128.265625 C 2.820312 -128.378906 3.394531 -128.4375 3.96875 -128.4375 C 19.070312 -128.09375 34.113281 -127.921875 49.09375 -127.921875 C 64.070312 -127.921875 79.050781 -128.035156 94.03125 -128.265625 C 94.84375 -128.265625 95.648438 -128.234375 96.453125 -128.171875 C 97.265625 -128.117188 97.957031 -127.800781 98.53125 -127.21875 C 99.101562 -126.644531 99.472656 -125.925781 99.640625 -125.0625 C 99.816406 -124.195312 99.960938 -123.363281 100.078125 -122.5625 C 100.078125 -121.175781 100.109375 -119.789062 100.171875 -118.40625 C 100.234375 -117.019531 100.265625 -115.640625 100.265625 -114.265625 C 100.378906 -113.109375 100.40625 -111.984375 100.34375 -110.890625 C 100.289062 -109.796875 99.972656 -108.785156 99.390625 -107.859375 C 99.273438 -107.515625 98.988281 -107.113281 98.53125 -106.65625 Z M 98.53125 -106.65625 "/></g></g></g><g fill="#1b1b1b" fill-opacity="1"><g transform="translate(223.960733, 231.636838)"><g><path d="M 52.546875 -52.03125 C 48.628906 -52.257812 44.679688 -52.257812 40.703125 -52.03125 C 36.734375 -51.800781 33.304688 -50.359375 30.421875 -47.703125 C 28.117188 -45.628906 26.707031 -42.894531 26.1875 -39.5 C 25.664062 -36.101562 25.578125 -32.585938 25.921875 -28.953125 C 26.273438 -25.328125 26.507812 -22.128906 26.625 -19.359375 C 26.738281 -17.972656 26.910156 -16.242188 27.140625 -14.171875 C 27.367188 -12.097656 27.507812 -10.023438 27.5625 -7.953125 C 27.625 -5.878906 27.3125 -4.207031 26.625 -2.9375 C 25.695312 -1.207031 24.109375 -0.253906 21.859375 -0.078125 C 19.617188 0.0859375 17.257812 -0.0546875 14.78125 -0.515625 C 12.300781 -0.972656 10.253906 -1.203125 8.640625 -1.203125 C 5.648438 -1.203125 3.488281 -1.289062 2.15625 -1.46875 C 0.832031 -1.644531 0.171875 -3.34375 0.171875 -6.5625 C 0.171875 -12.675781 0.171875 -18.753906 0.171875 -24.796875 C 0.171875 -30.847656 0.171875 -36.875 0.171875 -42.875 C 0.285156 -55.550781 0.34375 -68.3125 0.34375 -81.15625 C 0.34375 -94.007812 0.226562 -106.773438 0 -119.453125 C 0 -123.367188 0.519531 -125.84375 1.5625 -126.875 C 2.476562 -127.800781 4.492188 -128.265625 7.609375 -128.265625 C 7.835938 -128.265625 8.066406 -128.265625 8.296875 -128.265625 C 8.523438 -128.265625 8.695312 -128.265625 8.8125 -128.265625 C 10.769531 -128.148438 12.5 -128.09375 14 -128.09375 C 15.5 -128.09375 16.882812 -128.09375 18.15625 -128.09375 C 19.414062 -128.09375 20.707031 -128.117188 22.03125 -128.171875 C 23.363281 -128.234375 24.519531 -128.03125 25.5 -127.5625 C 26.476562 -127.101562 26.96875 -126.007812 26.96875 -124.28125 C 26.96875 -119.21875 26.9375 -114.117188 26.875 -108.984375 C 26.820312 -103.859375 26.796875 -98.703125 26.796875 -93.515625 C 26.796875 -92.484375 26.679688 -90.8125 26.453125 -88.5 C 26.222656 -86.195312 26.132812 -83.804688 26.1875 -81.328125 C 26.25 -78.847656 26.625 -76.742188 27.3125 -75.015625 C 28 -73.285156 29.265625 -72.421875 31.109375 -72.421875 C 32.953125 -72.421875 34.738281 -72.390625 36.46875 -72.328125 C 38.195312 -72.273438 39.925781 -72.25 41.65625 -72.25 C 43.269531 -72.25 44.882812 -72.25 46.5 -72.25 C 48.113281 -72.25 49.726562 -72.25 51.34375 -72.25 C 53.414062 -72.25 56.179688 -72.101562 59.640625 -71.8125 C 63.097656 -71.53125 66.46875 -71.445312 69.75 -71.5625 C 73.03125 -71.675781 75.535156 -72.425781 77.265625 -73.8125 C 78.878906 -75.082031 79.859375 -76.695312 80.203125 -78.65625 C 80.546875 -80.613281 80.660156 -82.65625 80.546875 -84.78125 C 80.429688 -86.914062 80.375 -88.90625 80.375 -90.75 C 80.601562 -95.820312 80.660156 -100.921875 80.546875 -106.046875 C 80.429688 -111.171875 80.375 -116.269531 80.375 -121.34375 C 80.257812 -123.414062 80.488281 -125.054688 81.0625 -126.265625 C 81.644531 -127.484375 83.03125 -128.09375 85.21875 -128.09375 C 87.519531 -128.09375 89.796875 -128.09375 92.046875 -128.09375 C 94.296875 -128.09375 96.515625 -128.09375 98.703125 -128.09375 C 101.347656 -127.976562 103.25 -127.921875 104.40625 -127.921875 C 105.5625 -127.921875 106.195312 -126.476562 106.3125 -123.59375 C 106.65625 -119.332031 106.710938 -114.984375 106.484375 -110.546875 C 106.253906 -106.109375 106.140625 -101.695312 106.140625 -97.3125 C 106.140625 -92.019531 106.140625 -86.722656 106.140625 -81.421875 C 106.140625 -76.117188 106.140625 -70.757812 106.140625 -65.34375 C 106.140625 -59 106.3125 -52.6875 106.65625 -46.40625 C 107 -40.125 107.226562 -33.816406 107.34375 -27.484375 C 107.34375 -26.441406 107.398438 -24.566406 107.515625 -21.859375 C 107.628906 -19.148438 107.628906 -16.210938 107.515625 -13.046875 C 107.398438 -9.878906 106.96875 -7.144531 106.21875 -4.84375 C 105.46875 -2.539062 104.226562 -1.328125 102.5 -1.203125 C 99.28125 -1.085938 96.054688 -1.054688 92.828125 -1.109375 C 89.597656 -1.171875 86.367188 -1.203125 83.140625 -1.203125 C 81.296875 -1.203125 80.226562 -2.179688 79.9375 -4.140625 C 79.65625 -6.109375 79.710938 -8.269531 80.109375 -10.625 C 80.515625 -12.988281 80.71875 -14.75 80.71875 -15.90625 C 80.957031 -19.9375 81.078125 -24.023438 81.078125 -28.171875 C 81.078125 -32.328125 80.785156 -36.476562 80.203125 -40.625 C 79.742188 -43.738281 78.5625 -46.128906 76.65625 -47.796875 C 74.757812 -49.460938 72.457031 -50.582031 69.75 -51.15625 C 67.039062 -51.738281 64.300781 -51.914062 61.53125 -51.6875 C 60.15625 -51.6875 58.71875 -51.710938 57.21875 -51.765625 C 55.71875 -51.828125 54.160156 -51.914062 52.546875 -52.03125 Z M 52.546875 -52.03125 "/></g></g></g></g></g><g transform="matrix(1, 0, 0, 1, 21, 309)"><g clip-path="url(#ba63905f3c)"><g fill="#000000" fill-opacity="1"><g transform="translate(0.417114, 19.810804)"><g><path d="M 4.796875 -17.40625 C 6.171875 -17.40625 7.164062 -17.03125 7.78125 -16.28125 C 8.394531 -15.53125 8.703125 -14.488281 8.703125 -13.15625 L 8.703125 -11.0625 C 8.703125 -9.675781 8.375 -8.628906 7.71875 -7.921875 C 7.0625 -7.210938 6.039062 -6.859375 4.65625 -6.859375 L 2.9375 -6.859375 L 2.9375 0 L 1 0 L 1 -17.40625 Z M 4.65625 -8.609375 C 5.382812 -8.609375 5.921875 -8.785156 6.265625 -9.140625 C 6.617188 -9.492188 6.796875 -10.09375 6.796875 -10.9375 L 6.796875 -13.265625 C 6.796875 -14.054688 6.640625 -14.648438 6.328125 -15.046875 C 6.023438 -15.441406 5.515625 -15.640625 4.796875 -15.640625 L 2.9375 -15.640625 L 2.9375 -8.609375 Z M 4.65625 -8.609375 "/></g></g></g><g fill="#000000" fill-opacity="1"><g transform="translate(9.710211, 19.810804)"><g><path d="M 4.875 -17.40625 C 6.25 -17.40625 7.238281 -17.066406 7.84375 -16.390625 C 8.445312 -15.710938 8.75 -14.726562 8.75 -13.4375 L 8.75 -12.015625 C 8.75 -11.054688 8.578125 -10.273438 8.234375 -9.671875 C 7.890625 -9.078125 7.34375 -8.664062 6.59375 -8.4375 C 7.382812 -8.195312 7.945312 -7.765625 8.28125 -7.140625 C 8.613281 -6.523438 8.78125 -5.742188 8.78125 -4.796875 L 8.78125 -2.09375 C 8.78125 -1.707031 8.796875 -1.335938 8.828125 -0.984375 C 8.859375 -0.628906 8.957031 -0.300781 9.125 0 L 7.15625 0 C 7.039062 -0.25 6.957031 -0.519531 6.90625 -0.8125 C 6.863281 -1.101562 6.84375 -1.535156 6.84375 -2.109375 L 6.84375 -4.84375 C 6.84375 -5.820312 6.617188 -6.5 6.171875 -6.875 C 5.734375 -7.25 5.109375 -7.4375 4.296875 -7.4375 L 2.9375 -7.4375 L 2.9375 0 L 1 0 L 1 -17.40625 Z M 4.375 -9.203125 C 5.15625 -9.203125 5.757812 -9.363281 6.1875 -9.6875 C 6.625 -10.007812 6.84375 -10.644531 6.84375 -11.59375 L 6.84375 -13.265625 C 6.84375 -14.054688 6.6875 -14.648438 6.375 -15.046875 C 6.070312 -15.441406 5.554688 -15.640625 4.828125 -15.640625 L 2.9375 -15.640625 L 2.9375 -9.203125 Z M 4.375 -9.203125 "/></g></g></g><g fill="#000000" fill-opacity="1"><g transform="translate(19.500255, 19.810804)"><g><path d="M 0.84375 -13.203125 C 0.84375 -14.546875 1.171875 -15.613281 1.828125 -16.40625 C 2.484375 -17.195312 3.484375 -17.59375 4.828125 -17.59375 C 6.171875 -17.59375 7.171875 -17.195312 7.828125 -16.40625 C 8.492188 -15.613281 8.828125 -14.546875 8.828125 -13.203125 L 8.828125 -4.203125 C 8.828125 -2.878906 8.492188 -1.816406 7.828125 -1.015625 C 7.171875 -0.222656 6.171875 0.171875 4.828125 0.171875 C 3.484375 0.171875 2.484375 -0.222656 1.828125 -1.015625 C 1.171875 -1.816406 0.84375 -2.878906 0.84375 -4.203125 Z M 2.765625 -4.109375 C 2.765625 -3.304688 2.929688 -2.6875 3.265625 -2.25 C 3.609375 -1.8125 4.128906 -1.59375 4.828125 -1.59375 C 5.535156 -1.59375 6.054688 -1.8125 6.390625 -2.25 C 6.722656 -2.6875 6.890625 -3.304688 6.890625 -4.109375 L 6.890625 -13.3125 C 6.890625 -14.101562 6.722656 -14.71875 6.390625 -15.15625 C 6.054688 -15.601562 5.535156 -15.828125 4.828125 -15.828125 C 4.128906 -15.828125 3.609375 -15.601562 3.265625 -15.15625 C 2.929688 -14.71875 2.765625 -14.101562 2.765625 -13.3125 Z M 2.765625 -4.109375 "/></g></g></g><g fill="#000000" fill-opacity="1"><g transform="translate(29.166063, 19.810804)"><g><path d="M 5.078125 -17.40625 C 6.429688 -17.40625 7.425781 -17.019531 8.0625 -16.25 C 8.707031 -15.476562 9.03125 -14.421875 9.03125 -13.078125 L 9.03125 -4.296875 C 9.03125 -2.953125 8.707031 -1.898438 8.0625 -1.140625 C 7.425781 -0.378906 6.429688 0 5.078125 0 L 1 0 L 1 -17.40625 Z M 5.046875 -1.765625 C 5.742188 -1.765625 6.257812 -1.972656 6.59375 -2.390625 C 6.9375 -2.816406 7.109375 -3.429688 7.109375 -4.234375 L 7.109375 -13.1875 C 7.109375 -13.976562 6.9375 -14.582031 6.59375 -15 C 6.257812 -15.425781 5.738281 -15.640625 5.03125 -15.640625 L 2.9375 -15.640625 L 2.9375 -1.765625 Z M 5.046875 -1.765625 "/></g></g></g><g fill="#000000" fill-opacity="1"><g transform="translate(39.005818, 19.810804)"><g><path d="M 2.828125 -4.109375 C 2.828125 -3.304688 2.988281 -2.6875 3.3125 -2.25 C 3.644531 -1.8125 4.164062 -1.59375 4.875 -1.59375 C 5.570312 -1.59375 6.082031 -1.8125 6.40625 -2.25 C 6.726562 -2.6875 6.890625 -3.304688 6.890625 -4.109375 L 6.890625 -17.40625 L 8.703125 -17.40625 L 8.703125 -4.203125 C 8.703125 -2.878906 8.382812 -1.8125 7.75 -1 C 7.125 -0.195312 6.140625 0.203125 4.796875 0.203125 C 3.472656 0.203125 2.492188 -0.195312 1.859375 -1 C 1.234375 -1.8125 0.921875 -2.878906 0.921875 -4.203125 L 0.921875 -17.40625 L 2.828125 -17.40625 Z M 2.828125 -4.109375 "/></g></g></g><g fill="#000000" fill-opacity="1"><g transform="translate(48.621941, 19.810804)"><g><path d="M 4.75 -17.59375 C 6.09375 -17.59375 7.082031 -17.191406 7.71875 -16.390625 C 8.363281 -15.597656 8.6875 -14.535156 8.6875 -13.203125 L 8.6875 -11.640625 L 6.84375 -11.640625 L 6.84375 -13.3125 C 6.84375 -14.101562 6.679688 -14.71875 6.359375 -15.15625 C 6.035156 -15.601562 5.515625 -15.828125 4.796875 -15.828125 C 4.097656 -15.828125 3.582031 -15.601562 3.25 -15.15625 C 2.925781 -14.71875 2.765625 -14.101562 2.765625 -13.3125 L 2.765625 -4.109375 C 2.765625 -3.304688 2.925781 -2.6875 3.25 -2.25 C 3.582031 -1.8125 4.097656 -1.59375 4.796875 -1.59375 C 5.515625 -1.59375 6.035156 -1.8125 6.359375 -2.25 C 6.679688 -2.6875 6.84375 -3.304688 6.84375 -4.109375 L 6.84375 -6.375 L 8.6875 -6.375 L 8.6875 -4.203125 C 8.6875 -2.878906 8.363281 -1.816406 7.71875 -1.015625 C 7.082031 -0.222656 6.09375 0.171875 4.75 0.171875 C 3.425781 0.171875 2.441406 -0.222656 1.796875 -1.015625 C 1.160156 -1.816406 0.84375 -2.878906 0.84375 -4.203125 L 0.84375 -13.203125 C 0.84375 -13.867188 0.921875 -14.472656 1.078125 -15.015625 C 1.234375 -15.554688 1.472656 -16.015625 1.796875 -16.390625 C 2.117188 -16.773438 2.523438 -17.070312 3.015625 -17.28125 C 3.503906 -17.488281 4.082031 -17.59375 4.75 -17.59375 Z M 4.75 -17.59375 "/></g></g></g><g fill="#000000" fill-opacity="1"><g transform="translate(58.064118, 19.810804)"><g><path d="M 3.53125 0 L 3.53125 -15.640625 L 0.328125 -15.640625 L 0.328125 -17.40625 L 8.6875 -17.40625 L 8.6875 -15.640625 L 5.46875 -15.640625 L 5.46875 0 Z M 3.53125 0 "/></g></g></g><g fill="#000000" fill-opacity="1"><g transform="translate(67.083873, 19.810804)"><g><path d="M 2.9375 -17.40625 L 2.9375 0 L 1 0 L 1 -17.40625 Z M 2.9375 -17.40625 "/></g></g></g><g fill="#000000" fill-opacity="1"><g transform="translate(71.009844, 19.810804)"><g><path d="M 0.84375 -13.203125 C 0.84375 -14.546875 1.171875 -15.613281 1.828125 -16.40625 C 2.484375 -17.195312 3.484375 -17.59375 4.828125 -17.59375 C 6.171875 -17.59375 7.171875 -17.195312 7.828125 -16.40625 C 8.492188 -15.613281 8.828125 -14.546875 8.828125 -13.203125 L 8.828125 -4.203125 C 8.828125 -2.878906 8.492188 -1.816406 7.828125 -1.015625 C 7.171875 -0.222656 6.171875 0.171875 4.828125 0.171875 C 3.484375 0.171875 2.484375 -0.222656 1.828125 -1.015625 C 1.171875 -1.816406 0.84375 -2.878906 0.84375 -4.203125 Z M 2.765625 -4.109375 C 2.765625 -3.304688 2.929688 -2.6875 3.265625 -2.25 C 3.609375 -1.8125 4.128906 -1.59375 4.828125 -1.59375 C 5.535156 -1.59375 6.054688 -1.8125 6.390625 -2.25 C 6.722656 -2.6875 6.890625 -3.304688 6.890625 -4.109375 L 6.890625 -13.3125 C 6.890625 -14.101562 6.722656 -14.71875 6.390625 -15.15625 C 6.054688 -15.601562 5.535156 -15.828125 4.828125 -15.828125 C 4.128906 -15.828125 3.609375 -15.601562 3.265625 -15.15625 C 2.929688 -14.71875 2.765625 -14.101562 2.765625 -13.3125 Z M 2.765625 -4.109375 "/></g></g></g><g fill="#000000" fill-opacity="1"><g transform="translate(80.675651, 19.810804)"><g><path d="M 2.71875 0 L 0.96875 0 L 0.96875 -17.40625 L 3.4375 -17.40625 L 7.46875 -4.828125 L 7.46875 -17.40625 L 9.171875 -17.40625 L 9.171875 0 L 7.15625 0 L 2.71875 -14.078125 Z M 2.71875 0 "/></g></g></g><g fill="#000000" fill-opacity="1"><g transform="translate(90.838406, 19.810804)"><g/></g></g><g fill="#000000" fill-opacity="1"><g transform="translate(94.689824, 19.810804)"><g><path d="M 5.078125 -17.40625 C 6.429688 -17.40625 7.425781 -17.019531 8.0625 -16.25 C 8.707031 -15.476562 9.03125 -14.421875 9.03125 -13.078125 L 9.03125 -4.296875 C 9.03125 -2.953125 8.707031 -1.898438 8.0625 -1.140625 C 7.425781 -0.378906 6.429688 0 5.078125 0 L 1 0 L 1 -17.40625 Z M 5.046875 -1.765625 C 5.742188 -1.765625 6.257812 -1.972656 6.59375 -2.390625 C 6.9375 -2.816406 7.109375 -3.429688 7.109375 -4.234375 L 7.109375 -13.1875 C 7.109375 -13.976562 6.9375 -14.582031 6.59375 -15 C 6.257812 -15.425781 5.738281 -15.640625 5.03125 -15.640625 L 2.9375 -15.640625 L 2.9375 -1.765625 Z M 5.046875 -1.765625 "/></g></g></g><g fill="#000000" fill-opacity="1"><g transform="translate(104.529579, 19.810804)"><g><path d="M 7.1875 -9.703125 L 7.1875 -7.953125 L 2.9375 -7.953125 L 2.9375 -1.765625 L 8.15625 -1.765625 L 8.15625 0 L 1 0 L 1 -17.40625 L 8.15625 -17.40625 L 8.15625 -15.640625 L 2.9375 -15.640625 L 2.9375 -9.703125 Z M 7.1875 -9.703125 "/></g></g></g><g fill="#000000" fill-opacity="1"><g transform="translate(0.417114, 43.853772)"><g><path d="M 4.65625 -17.59375 C 5.976562 -17.59375 6.953125 -17.195312 7.578125 -16.40625 C 8.210938 -15.613281 8.53125 -14.554688 8.53125 -13.234375 L 8.53125 -12.765625 L 6.6875 -12.765625 L 6.6875 -13.328125 C 6.6875 -14.128906 6.53125 -14.742188 6.21875 -15.171875 C 5.90625 -15.609375 5.398438 -15.828125 4.703125 -15.828125 C 4.003906 -15.828125 3.5 -15.609375 3.1875 -15.171875 C 2.875 -14.742188 2.71875 -14.140625 2.71875 -13.359375 C 2.71875 -12.710938 2.859375 -12.144531 3.140625 -11.65625 C 3.429688 -11.175781 3.789062 -10.734375 4.21875 -10.328125 C 4.65625 -9.921875 5.125 -9.523438 5.625 -9.140625 C 6.132812 -8.753906 6.601562 -8.328125 7.03125 -7.859375 C 7.46875 -7.390625 7.832031 -6.859375 8.125 -6.265625 C 8.414062 -5.679688 8.5625 -4.984375 8.5625 -4.171875 C 8.5625 -2.847656 8.238281 -1.789062 7.59375 -1 C 6.957031 -0.21875 5.96875 0.171875 4.625 0.171875 C 3.28125 0.171875 2.289062 -0.21875 1.65625 -1 C 1.03125 -1.789062 0.71875 -2.847656 0.71875 -4.171875 L 0.71875 -5.171875 L 2.53125 -5.171875 L 2.53125 -4.078125 C 2.53125 -3.285156 2.695312 -2.671875 3.03125 -2.234375 C 3.363281 -1.804688 3.878906 -1.59375 4.578125 -1.59375 C 5.273438 -1.59375 5.785156 -1.804688 6.109375 -2.234375 C 6.441406 -2.671875 6.609375 -3.285156 6.609375 -4.078125 C 6.609375 -4.722656 6.460938 -5.28125 6.171875 -5.75 C 5.890625 -6.226562 5.53125 -6.671875 5.09375 -7.078125 C 4.664062 -7.484375 4.203125 -7.878906 3.703125 -8.265625 C 3.203125 -8.660156 2.738281 -9.085938 2.3125 -9.546875 C 1.882812 -10.015625 1.523438 -10.539062 1.234375 -11.125 C 0.941406 -11.71875 0.796875 -12.421875 0.796875 -13.234375 C 0.796875 -14.578125 1.109375 -15.640625 1.734375 -16.421875 C 2.367188 -17.203125 3.34375 -17.59375 4.65625 -17.59375 Z M 4.65625 -17.59375 "/></g></g></g><g fill="#000000" fill-opacity="1"><g transform="translate(9.660501, 43.853772)"><g><path d="M 4.796875 -17.40625 C 6.171875 -17.40625 7.164062 -17.03125 7.78125 -16.28125 C 8.394531 -15.53125 8.703125 -14.488281 8.703125 -13.15625 L 8.703125 -11.0625 C 8.703125 -9.675781 8.375 -8.628906 7.71875 -7.921875 C 7.0625 -7.210938 6.039062 -6.859375 4.65625 -6.859375 L 2.9375 -6.859375 L 2.9375 0 L 1 0 L 1 -17.40625 Z M 4.65625 -8.609375 C 5.382812 -8.609375 5.921875 -8.785156 6.265625 -9.140625 C 6.617188 -9.492188 6.796875 -10.09375 6.796875 -10.9375 L 6.796875 -13.265625 C 6.796875 -14.054688 6.640625 -14.648438 6.328125 -15.046875 C 6.023438 -15.441406 5.515625 -15.640625 4.796875 -15.640625 L 2.9375 -15.640625 L 2.9375 -8.609375 Z M 4.65625 -8.609375 "/></g></g></g><g fill="#000000" fill-opacity="1"><g transform="translate(18.953598, 43.853772)"><g><path d="M 7.1875 -9.703125 L 7.1875 -7.953125 L 2.9375 -7.953125 L 2.9375 -1.765625 L 8.15625 -1.765625 L 8.15625 0 L 1 0 L 1 -17.40625 L 8.15625 -17.40625 L 8.15625 -15.640625 L 2.9375 -15.640625 L 2.9375 -9.703125 Z M 7.1875 -9.703125 "/></g></g></g><g fill="#000000" fill-opacity="1"><g transform="translate(27.898827, 43.853772)"><g><path d="M 4.75 -17.59375 C 6.09375 -17.59375 7.082031 -17.191406 7.71875 -16.390625 C 8.363281 -15.597656 8.6875 -14.535156 8.6875 -13.203125 L 8.6875 -11.640625 L 6.84375 -11.640625 L 6.84375 -13.3125 C 6.84375 -14.101562 6.679688 -14.71875 6.359375 -15.15625 C 6.035156 -15.601562 5.515625 -15.828125 4.796875 -15.828125 C 4.097656 -15.828125 3.582031 -15.601562 3.25 -15.15625 C 2.925781 -14.71875 2.765625 -14.101562 2.765625 -13.3125 L 2.765625 -4.109375 C 2.765625 -3.304688 2.925781 -2.6875 3.25 -2.25 C 3.582031 -1.8125 4.097656 -1.59375 4.796875 -1.59375 C 5.515625 -1.59375 6.035156 -1.8125 6.359375 -2.25 C 6.679688 -2.6875 6.84375 -3.304688 6.84375 -4.109375 L 6.84375 -6.375 L 8.6875 -6.375 L 8.6875 -4.203125 C 8.6875 -2.878906 8.363281 -1.816406 7.71875 -1.015625 C 7.082031 -0.222656 6.09375 0.171875 4.75 0.171875 C 3.425781 0.171875 2.441406 -0.222656 1.796875 -1.015625 C 1.160156 -1.816406 0.84375 -2.878906 0.84375 -4.203125 L 0.84375 -13.203125 C 0.84375 -13.867188 0.921875 -14.472656 1.078125 -15.015625 C 1.234375 -15.554688 1.472656 -16.015625 1.796875 -16.390625 C 2.117188 -16.773438 2.523438 -17.070312 3.015625 -17.28125 C 3.503906 -17.488281 4.082031 -17.59375 4.75 -17.59375 Z M 4.75 -17.59375 "/></g></g></g><g fill="#000000" fill-opacity="1"><g transform="translate(37.341004, 43.853772)"><g><path d="M 3.53125 0 L 3.53125 -15.640625 L 0.328125 -15.640625 L 0.328125 -17.40625 L 8.6875 -17.40625 L 8.6875 -15.640625 L 5.46875 -15.640625 L 5.46875 0 Z M 3.53125 0 "/></g></g></g><g fill="#000000" fill-opacity="1"><g transform="translate(46.360759, 43.853772)"><g><path d="M 2.953125 -3.5 L 2.28125 0 L 0.5 0 L 3.828125 -17.40625 L 6.640625 -17.40625 L 9.96875 0 L 8.03125 0 L 7.359375 -3.5 Z M 3.203125 -5.171875 L 7.09375 -5.171875 L 5.125 -15.21875 Z M 3.203125 -5.171875 "/></g></g></g><g fill="#000000" fill-opacity="1"><g transform="translate(56.84654, 43.853772)"><g><path d="M 4.75 -17.59375 C 6.09375 -17.59375 7.082031 -17.191406 7.71875 -16.390625 C 8.363281 -15.597656 8.6875 -14.535156 8.6875 -13.203125 L 8.6875 -11.640625 L 6.84375 -11.640625 L 6.84375 -13.3125 C 6.84375 -14.101562 6.679688 -14.71875 6.359375 -15.15625 C 6.035156 -15.601562 5.515625 -15.828125 4.796875 -15.828125 C 4.097656 -15.828125 3.582031 -15.601562 3.25 -15.15625 C 2.925781 -14.71875 2.765625 -14.101562 2.765625 -13.3125 L 2.765625 -4.109375 C 2.765625 -3.304688 2.925781 -2.6875 3.25 -2.25 C 3.582031 -1.8125 4.097656 -1.59375 4.796875 -1.59375 C 5.515625 -1.59375 6.035156 -1.8125 6.359375 -2.25 C 6.679688 -2.6875 6.84375 -3.304688 6.84375 -4.109375 L 6.84375 -6.375 L 8.6875 -6.375 L 8.6875 -4.203125 C 8.6875 -2.878906 8.363281 -1.816406 7.71875 -1.015625 C 7.082031 -0.222656 6.09375 0.171875 4.75 0.171875 C 3.425781 0.171875 2.441406 -0.222656 1.796875 -1.015625 C 1.160156 -1.816406 0.84375 -2.878906 0.84375 -4.203125 L 0.84375 -13.203125 C 0.84375 -13.867188 0.921875 -14.472656 1.078125 -15.015625 C 1.234375 -15.554688 1.472656 -16.015625 1.796875 -16.390625 C 2.117188 -16.773438 2.523438 -17.070312 3.015625 -17.28125 C 3.503906 -17.488281 4.082031 -17.59375 4.75 -17.59375 Z M 4.75 -17.59375 "/></g></g></g><g fill="#000000" fill-opacity="1"><g transform="translate(66.288716, 43.853772)"><g><path d="M 1 0 L 1 -17.40625 L 2.9375 -17.40625 L 2.9375 -1.765625 L 7.90625 -1.765625 L 7.90625 0 Z M 1 0 "/></g></g></g><g fill="#000000" fill-opacity="1"><g transform="translate(74.662446, 43.853772)"><g><path d="M 7.1875 -9.703125 L 7.1875 -7.953125 L 2.9375 -7.953125 L 2.9375 -1.765625 L 8.15625 -1.765625 L 8.15625 0 L 1 0 L 1 -17.40625 L 8.15625 -17.40625 L 8.15625 -15.640625 L 2.9375 -15.640625 L 2.9375 -9.703125 Z M 7.1875 -9.703125 "/></g></g></g></g></g><g transform="matrix(1, 0, 0, 1, 240, 18)"><g clip-path="url(#e9057d3851)"><g fill="#000000" fill-opacity="1"><g transform="translate(0.286604, 19.088374)"><g><path d="M 4.8125 -17.4375 C 6.1875 -17.4375 7.179688 -17.054688 7.796875 -16.296875 C 8.410156 -15.546875 8.71875 -14.503906 8.71875 -13.171875 L 8.71875 -11.078125 C 8.71875 -9.679688 8.390625 -8.628906 7.734375 -7.921875 C 7.078125 -7.222656 6.050781 -6.875 4.65625 -6.875 L 2.9375 -6.875 L 2.9375 0 L 1 0 L 1 -17.4375 Z M 4.65625 -8.625 C 5.382812 -8.625 5.921875 -8.800781 6.265625 -9.15625 C 6.617188 -9.507812 6.796875 -10.109375 6.796875 -10.953125 L 6.796875 -13.28125 C 6.796875 -14.070312 6.640625 -14.664062 6.328125 -15.0625 C 6.023438 -15.46875 5.519531 -15.671875 4.8125 -15.671875 L 2.9375 -15.671875 L 2.9375 -8.625 Z M 4.65625 -8.625 "/></g></g></g><g fill="#000000" fill-opacity="1"><g transform="translate(9.598196, 19.088374)"><g><path d="M 4.875 -17.4375 C 6.257812 -17.4375 7.253906 -17.09375 7.859375 -16.40625 C 8.460938 -15.726562 8.765625 -14.742188 8.765625 -13.453125 L 8.765625 -12.03125 C 8.765625 -11.0625 8.585938 -10.28125 8.234375 -9.6875 C 7.890625 -9.09375 7.34375 -8.675781 6.59375 -8.4375 C 7.394531 -8.207031 7.960938 -7.78125 8.296875 -7.15625 C 8.628906 -6.53125 8.796875 -5.75 8.796875 -4.8125 L 8.796875 -2.09375 C 8.796875 -1.707031 8.8125 -1.335938 8.84375 -0.984375 C 8.875 -0.628906 8.972656 -0.300781 9.140625 0 L 7.171875 0 C 7.054688 -0.25 6.972656 -0.519531 6.921875 -0.8125 C 6.867188 -1.101562 6.84375 -1.535156 6.84375 -2.109375 L 6.84375 -4.859375 C 6.84375 -5.835938 6.625 -6.515625 6.1875 -6.890625 C 5.75 -7.265625 5.125 -7.453125 4.3125 -7.453125 L 2.9375 -7.453125 L 2.9375 0 L 1 0 L 1 -17.4375 Z M 4.390625 -9.21875 C 5.160156 -9.21875 5.757812 -9.378906 6.1875 -9.703125 C 6.625 -10.023438 6.84375 -10.660156 6.84375 -11.609375 L 6.84375 -13.28125 C 6.84375 -14.070312 6.6875 -14.664062 6.375 -15.0625 C 6.070312 -15.46875 5.554688 -15.671875 4.828125 -15.671875 L 2.9375 -15.671875 L 2.9375 -9.21875 Z M 4.390625 -9.21875 "/></g></g></g><g fill="#000000" fill-opacity="1"><g transform="translate(19.40772, 19.088374)"><g><path d="M 0.84375 -13.21875 C 0.84375 -14.570312 1.171875 -15.640625 1.828125 -16.421875 C 2.484375 -17.210938 3.484375 -17.609375 4.828125 -17.609375 C 6.171875 -17.609375 7.175781 -17.210938 7.84375 -16.421875 C 8.507812 -15.640625 8.84375 -14.570312 8.84375 -13.21875 L 8.84375 -4.203125 C 8.84375 -2.878906 8.507812 -1.816406 7.84375 -1.015625 C 7.175781 -0.222656 6.171875 0.171875 4.828125 0.171875 C 3.484375 0.171875 2.484375 -0.222656 1.828125 -1.015625 C 1.171875 -1.816406 0.84375 -2.878906 0.84375 -4.203125 Z M 2.765625 -4.109375 C 2.765625 -3.304688 2.929688 -2.6875 3.265625 -2.25 C 3.609375 -1.8125 4.128906 -1.59375 4.828125 -1.59375 C 5.546875 -1.59375 6.070312 -1.8125 6.40625 -2.25 C 6.738281 -2.6875 6.90625 -3.304688 6.90625 -4.109375 L 6.90625 -13.328125 C 6.90625 -14.117188 6.738281 -14.734375 6.40625 -15.171875 C 6.070312 -15.617188 5.546875 -15.84375 4.828125 -15.84375 C 4.128906 -15.84375 3.609375 -15.617188 3.265625 -15.171875 C 2.929688 -14.734375 2.765625 -14.117188 2.765625 -13.328125 Z M 2.765625 -4.109375 "/></g></g></g><g fill="#000000" fill-opacity="1"><g transform="translate(29.092769, 19.088374)"><g><path d="M 5.078125 -17.4375 C 6.441406 -17.4375 7.441406 -17.050781 8.078125 -16.28125 C 8.722656 -15.507812 9.046875 -14.445312 9.046875 -13.09375 L 9.046875 -4.3125 C 9.046875 -2.96875 8.722656 -1.910156 8.078125 -1.140625 C 7.441406 -0.378906 6.441406 0 5.078125 0 L 1 0 L 1 -17.4375 Z M 5.0625 -1.765625 C 5.757812 -1.765625 6.273438 -1.972656 6.609375 -2.390625 C 6.953125 -2.816406 7.125 -3.429688 7.125 -4.234375 L 7.125 -13.203125 C 7.125 -13.992188 6.953125 -14.601562 6.609375 -15.03125 C 6.273438 -15.457031 5.75 -15.671875 5.03125 -15.671875 L 2.9375 -15.671875 L 2.9375 -1.765625 Z M 5.0625 -1.765625 "/></g></g></g><g fill="#000000" fill-opacity="1"><g transform="translate(38.952092, 19.088374)"><g><path d="M 2.84375 -4.109375 C 2.84375 -3.304688 3.003906 -2.6875 3.328125 -2.25 C 3.648438 -1.8125 4.164062 -1.59375 4.875 -1.59375 C 5.570312 -1.59375 6.082031 -1.8125 6.40625 -2.25 C 6.738281 -2.6875 6.90625 -3.304688 6.90625 -4.109375 L 6.90625 -17.4375 L 8.71875 -17.4375 L 8.71875 -4.203125 C 8.71875 -2.878906 8.398438 -1.8125 7.765625 -1 C 7.140625 -0.195312 6.15625 0.203125 4.8125 0.203125 C 3.476562 0.203125 2.492188 -0.195312 1.859375 -1 C 1.234375 -1.8125 0.921875 -2.878906 0.921875 -4.203125 L 0.921875 -17.4375 L 2.84375 -17.4375 Z M 2.84375 -4.109375 "/></g></g></g><g fill="#000000" fill-opacity="1"><g transform="translate(48.587342, 19.088374)"><g><path d="M 4.75 -17.609375 C 6.101562 -17.609375 7.097656 -17.207031 7.734375 -16.40625 C 8.367188 -15.613281 8.6875 -14.550781 8.6875 -13.21875 L 8.6875 -11.65625 L 6.84375 -11.65625 L 6.84375 -13.328125 C 6.84375 -14.117188 6.679688 -14.734375 6.359375 -15.171875 C 6.035156 -15.617188 5.519531 -15.84375 4.8125 -15.84375 C 4.113281 -15.84375 3.597656 -15.617188 3.265625 -15.171875 C 2.929688 -14.734375 2.765625 -14.117188 2.765625 -13.328125 L 2.765625 -4.109375 C 2.765625 -3.304688 2.929688 -2.6875 3.265625 -2.25 C 3.597656 -1.8125 4.113281 -1.59375 4.8125 -1.59375 C 5.519531 -1.59375 6.035156 -1.8125 6.359375 -2.25 C 6.679688 -2.6875 6.84375 -3.304688 6.84375 -4.109375 L 6.84375 -6.375 L 8.6875 -6.375 L 8.6875 -4.203125 C 8.6875 -2.878906 8.367188 -1.816406 7.734375 -1.015625 C 7.097656 -0.222656 6.101562 0.171875 4.75 0.171875 C 3.425781 0.171875 2.441406 -0.222656 1.796875 -1.015625 C 1.160156 -1.816406 0.84375 -2.878906 0.84375 -4.203125 L 0.84375 -13.21875 C 0.84375 -13.882812 0.921875 -14.488281 1.078125 -15.03125 C 1.234375 -15.570312 1.472656 -16.03125 1.796875 -16.40625 C 2.128906 -16.789062 2.539062 -17.085938 3.03125 -17.296875 C 3.519531 -17.503906 4.09375 -17.609375 4.75 -17.609375 Z M 4.75 -17.609375 "/></g></g></g><g fill="#000000" fill-opacity="1"><g transform="translate(58.048316, 19.088374)"><g><path d="M 3.53125 0 L 3.53125 -15.671875 L 0.328125 -15.671875 L 0.328125 -17.4375 L 8.6875 -17.4375 L 8.6875 -15.671875 L 5.484375 -15.671875 L 5.484375 0 Z M 3.53125 0 "/></g></g></g><g fill="#000000" fill-opacity="1"><g transform="translate(67.086034, 19.088374)"><g><path d="M 2.9375 -17.4375 L 2.9375 0 L 1 0 L 1 -17.4375 Z M 2.9375 -17.4375 "/></g></g></g><g fill="#000000" fill-opacity="1"><g transform="translate(71.019801, 19.088374)"><g><path d="M 0.84375 -13.21875 C 0.84375 -14.570312 1.171875 -15.640625 1.828125 -16.421875 C 2.484375 -17.210938 3.484375 -17.609375 4.828125 -17.609375 C 6.171875 -17.609375 7.175781 -17.210938 7.84375 -16.421875 C 8.507812 -15.640625 8.84375 -14.570312 8.84375 -13.21875 L 8.84375 -4.203125 C 8.84375 -2.878906 8.507812 -1.816406 7.84375 -1.015625 C 7.175781 -0.222656 6.171875 0.171875 4.828125 0.171875 C 3.484375 0.171875 2.484375 -0.222656 1.828125 -1.015625 C 1.171875 -1.816406 0.84375 -2.878906 0.84375 -4.203125 Z M 2.765625 -4.109375 C 2.765625 -3.304688 2.929688 -2.6875 3.265625 -2.25 C 3.609375 -1.8125 4.128906 -1.59375 4.828125 -1.59375 C 5.546875 -1.59375 6.070312 -1.8125 6.40625 -2.25 C 6.738281 -2.6875 6.90625 -3.304688 6.90625 -4.109375 L 6.90625 -13.328125 C 6.90625 -14.117188 6.738281 -14.734375 6.40625 -15.171875 C 6.070312 -15.617188 5.546875 -15.84375 4.828125 -15.84375 C 4.128906 -15.84375 3.609375 -15.617188 3.265625 -15.171875 C 2.929688 -14.734375 2.765625 -14.117188 2.765625 -13.328125 Z M 2.765625 -4.109375 "/></g></g></g><g fill="#000000" fill-opacity="1"><g transform="translate(80.70485, 19.088374)"><g><path d="M 2.71875 0 L 0.96875 0 L 0.96875 -17.4375 L 3.4375 -17.4375 L 7.46875 -4.828125 L 7.46875 -17.4375 L 9.1875 -17.4375 L 9.1875 0 L 7.171875 0 L 2.71875 -14.09375 Z M 2.71875 0 "/></g></g></g><g fill="#000000" fill-opacity="1"><g transform="translate(90.887846, 19.088374)"><g/></g></g><g fill="#000000" fill-opacity="1"><g transform="translate(94.746921, 19.088374)"><g><path d="M 5.078125 -17.4375 C 6.441406 -17.4375 7.441406 -17.050781 8.078125 -16.28125 C 8.722656 -15.507812 9.046875 -14.445312 9.046875 -13.09375 L 9.046875 -4.3125 C 9.046875 -2.96875 8.722656 -1.910156 8.078125 -1.140625 C 7.441406 -0.378906 6.441406 0 5.078125 0 L 1 0 L 1 -17.4375 Z M 5.0625 -1.765625 C 5.757812 -1.765625 6.273438 -1.972656 6.609375 -2.390625 C 6.953125 -2.816406 7.125 -3.429688 7.125 -4.234375 L 7.125 -13.203125 C 7.125 -13.992188 6.953125 -14.601562 6.609375 -15.03125 C 6.273438 -15.457031 5.75 -15.671875 5.03125 -15.671875 L 2.9375 -15.671875 L 2.9375 -1.765625 Z M 5.0625 -1.765625 "/></g></g></g><g fill="#000000" fill-opacity="1"><g transform="translate(104.606244, 19.088374)"><g><path d="M 7.203125 -9.71875 L 7.203125 -7.96875 L 2.9375 -7.96875 L 2.9375 -1.765625 L 8.171875 -1.765625 L 8.171875 0 L 1 0 L 1 -17.4375 L 8.171875 -17.4375 L 8.171875 -15.671875 L 2.9375 -15.671875 L 2.9375 -9.71875 Z M 7.203125 -9.71875 "/></g></g></g><g fill="#000000" fill-opacity="1"><g transform="translate(30.21182, 44.365307)"><g><path d="M 4.65625 -17.609375 C 5.988281 -17.609375 6.96875 -17.210938 7.59375 -16.421875 C 8.226562 -15.640625 8.546875 -14.582031 8.546875 -13.25 L 8.546875 -12.78125 L 6.703125 -12.78125 L 6.703125 -13.34375 C 6.703125 -14.144531 6.539062 -14.757812 6.21875 -15.1875 C 5.90625 -15.625 5.398438 -15.84375 4.703125 -15.84375 C 4.003906 -15.84375 3.5 -15.625 3.1875 -15.1875 C 2.875 -14.757812 2.71875 -14.15625 2.71875 -13.375 C 2.71875 -12.726562 2.863281 -12.160156 3.15625 -11.671875 C 3.445312 -11.191406 3.804688 -10.75 4.234375 -10.34375 C 4.660156 -9.9375 5.128906 -9.535156 5.640625 -9.140625 C 6.148438 -8.753906 6.617188 -8.328125 7.046875 -7.859375 C 7.484375 -7.398438 7.84375 -6.875 8.125 -6.28125 C 8.414062 -5.695312 8.5625 -5 8.5625 -4.1875 C 8.5625 -2.851562 8.242188 -1.789062 7.609375 -1 C 6.972656 -0.21875 5.976562 0.171875 4.625 0.171875 C 3.28125 0.171875 2.289062 -0.21875 1.65625 -1 C 1.03125 -1.789062 0.71875 -2.851562 0.71875 -4.1875 L 0.71875 -5.1875 L 2.546875 -5.1875 L 2.546875 -4.078125 C 2.546875 -3.285156 2.707031 -2.671875 3.03125 -2.234375 C 3.363281 -1.804688 3.878906 -1.59375 4.578125 -1.59375 C 5.273438 -1.59375 5.789062 -1.804688 6.125 -2.234375 C 6.457031 -2.671875 6.625 -3.285156 6.625 -4.078125 C 6.625 -4.734375 6.476562 -5.296875 6.1875 -5.765625 C 5.894531 -6.234375 5.53125 -6.671875 5.09375 -7.078125 C 4.664062 -7.492188 4.203125 -7.894531 3.703125 -8.28125 C 3.210938 -8.664062 2.75 -9.09375 2.3125 -9.5625 C 1.882812 -10.03125 1.523438 -10.554688 1.234375 -11.140625 C 0.941406 -11.734375 0.796875 -12.4375 0.796875 -13.25 C 0.796875 -14.59375 1.109375 -15.65625 1.734375 -16.4375 C 2.367188 -17.21875 3.34375 -17.609375 4.65625 -17.609375 Z M 4.65625 -17.609375 "/></g></g></g><g fill="#000000" fill-opacity="1"><g transform="translate(39.473612, 44.365307)"><g><path d="M 4.8125 -17.4375 C 6.1875 -17.4375 7.179688 -17.054688 7.796875 -16.296875 C 8.410156 -15.546875 8.71875 -14.503906 8.71875 -13.171875 L 8.71875 -11.078125 C 8.71875 -9.679688 8.390625 -8.628906 7.734375 -7.921875 C 7.078125 -7.222656 6.050781 -6.875 4.65625 -6.875 L 2.9375 -6.875 L 2.9375 0 L 1 0 L 1 -17.4375 Z M 4.65625 -8.625 C 5.382812 -8.625 5.921875 -8.800781 6.265625 -9.15625 C 6.617188 -9.507812 6.796875 -10.109375 6.796875 -10.953125 L 6.796875 -13.28125 C 6.796875 -14.070312 6.640625 -14.664062 6.328125 -15.0625 C 6.023438 -15.46875 5.519531 -15.671875 4.8125 -15.671875 L 2.9375 -15.671875 L 2.9375 -8.625 Z M 4.65625 -8.625 "/></g></g></g><g fill="#000000" fill-opacity="1"><g transform="translate(48.785204, 44.365307)"><g><path d="M 7.203125 -9.71875 L 7.203125 -7.96875 L 2.9375 -7.96875 L 2.9375 -1.765625 L 8.171875 -1.765625 L 8.171875 0 L 1 0 L 1 -17.4375 L 8.171875 -17.4375 L 8.171875 -15.671875 L 2.9375 -15.671875 L 2.9375 -9.71875 Z M 7.203125 -9.71875 "/></g></g></g><g fill="#000000" fill-opacity="1"><g transform="translate(57.74823, 44.365307)"><g><path d="M 4.75 -17.609375 C 6.101562 -17.609375 7.097656 -17.207031 7.734375 -16.40625 C 8.367188 -15.613281 8.6875 -14.550781 8.6875 -13.21875 L 8.6875 -11.65625 L 6.84375 -11.65625 L 6.84375 -13.328125 C 6.84375 -14.117188 6.679688 -14.734375 6.359375 -15.171875 C 6.035156 -15.617188 5.519531 -15.84375 4.8125 -15.84375 C 4.113281 -15.84375 3.597656 -15.617188 3.265625 -15.171875 C 2.929688 -14.734375 2.765625 -14.117188 2.765625 -13.328125 L 2.765625 -4.109375 C 2.765625 -3.304688 2.929688 -2.6875 3.265625 -2.25 C 3.597656 -1.8125 4.113281 -1.59375 4.8125 -1.59375 C 5.519531 -1.59375 6.035156 -1.8125 6.359375 -2.25 C 6.679688 -2.6875 6.84375 -3.304688 6.84375 -4.109375 L 6.84375 -6.375 L 8.6875 -6.375 L 8.6875 -4.203125 C 8.6875 -2.878906 8.367188 -1.816406 7.734375 -1.015625 C 7.097656 -0.222656 6.101562 0.171875 4.75 0.171875 C 3.425781 0.171875 2.441406 -0.222656 1.796875 -1.015625 C 1.160156 -1.816406 0.84375 -2.878906 0.84375 -4.203125 L 0.84375 -13.21875 C 0.84375 -13.882812 0.921875 -14.488281 1.078125 -15.03125 C 1.234375 -15.570312 1.472656 -16.03125 1.796875 -16.40625 C 2.128906 -16.789062 2.539062 -17.085938 3.03125 -17.296875 C 3.519531 -17.503906 4.09375 -17.609375 4.75 -17.609375 Z M 4.75 -17.609375 "/></g></g></g><g fill="#000000" fill-opacity="1"><g transform="translate(67.209205, 44.365307)"><g><path d="M 3.53125 0 L 3.53125 -15.671875 L 0.328125 -15.671875 L 0.328125 -17.4375 L 8.6875 -17.4375 L 8.6875 -15.671875 L 5.484375 -15.671875 L 5.484375 0 Z M 3.53125 0 "/></g></g></g><g fill="#000000" fill-opacity="1"><g transform="translate(76.246923, 44.365307)"><g><path d="M 2.96875 -3.515625 L 2.296875 0 L 0.5 0 L 3.828125 -17.4375 L 6.65625 -17.4375 L 9.984375 0 L 8.046875 0 L 7.375 -3.515625 Z M 3.21875 -5.1875 L 7.09375 -5.1875 L 5.125 -15.25 Z M 3.21875 -5.1875 "/></g></g></g><g fill="#000000" fill-opacity="1"><g transform="translate(86.753577, 44.365307)"><g><path d="M 4.75 -17.609375 C 6.101562 -17.609375 7.097656 -17.207031 7.734375 -16.40625 C 8.367188 -15.613281 8.6875 -14.550781 8.6875 -13.21875 L 8.6875 -11.65625 L 6.84375 -11.65625 L 6.84375 -13.328125 C 6.84375 -14.117188 6.679688 -14.734375 6.359375 -15.171875 C 6.035156 -15.617188 5.519531 -15.84375 4.8125 -15.84375 C 4.113281 -15.84375 3.597656 -15.617188 3.265625 -15.171875 C 2.929688 -14.734375 2.765625 -14.117188 2.765625 -13.328125 L 2.765625 -4.109375 C 2.765625 -3.304688 2.929688 -2.6875 3.265625 -2.25 C 3.597656 -1.8125 4.113281 -1.59375 4.8125 -1.59375 C 5.519531 -1.59375 6.035156 -1.8125 6.359375 -2.25 C 6.679688 -2.6875 6.84375 -3.304688 6.84375 -4.109375 L 6.84375 -6.375 L 8.6875 -6.375 L 8.6875 -4.203125 C 8.6875 -2.878906 8.367188 -1.816406 7.734375 -1.015625 C 7.097656 -0.222656 6.101562 0.171875 4.75 0.171875 C 3.425781 0.171875 2.441406 -0.222656 1.796875 -1.015625 C 1.160156 -1.816406 0.84375 -2.878906 0.84375 -4.203125 L 0.84375 -13.21875 C 0.84375 -13.882812 0.921875 -14.488281 1.078125 -15.03125 C 1.234375 -15.570312 1.472656 -16.03125 1.796875 -16.40625 C 2.128906 -16.789062 2.539062 -17.085938 3.03125 -17.296875 C 3.519531 -17.503906 4.09375 -17.609375 4.75 -17.609375 Z M 4.75 -17.609375 "/></g></g></g><g fill="#000000" fill-opacity="1"><g transform="translate(96.214551, 44.365307)"><g><path d="M 1 0 L 1 -17.4375 L 2.9375 -17.4375 L 2.9375 -1.765625 L 7.921875 -1.765625 L 7.921875 0 Z M 1 0 "/></g></g></g><g fill="#000000" fill-opacity="1"><g transform="translate(104.604939, 44.365307)"><g><path d="M 7.203125 -9.71875 L 7.203125 -7.96875 L 2.9375 -7.96875 L 2.9375 -1.765625 L 8.171875 -1.765625 L 8.171875 0 L 1 0 L 1 -17.4375 L 8.171875 -17.4375 L 8.171875 -15.671875 L 2.9375 -15.671875 L 2.9375 -9.71875 Z M 7.203125 -9.71875 "/></g></g></g></g></g></svg>